<?xml version="1.0" encoding="utf-8"?>
<!-- Generator: Adobe Illustrator 27.5.0, SVG Export Plug-In . SVG Version: 6.00 Build 0)  -->
<svg version="1.1" id="Layer_1" xmlns="http://www.w3.org/2000/svg" xmlns:xlink="http://www.w3.org/1999/xlink" x="0px" y="0px"
	 viewBox="0 0 1000 1000" style="enable-background:new 0 0 1000 1000;" xml:space="preserve">
<g>
	<path style="fill:#3C3C3C;" d="M627.247,548.891c-0.276,2.098-0.726,4.268-1.243,6.531c0.866,0.817,1.73,1.638,2.59,2.464
		C627.715,555.051,627.08,551.888,627.247,548.891z"/>
	<path style="fill:#3C3C3C;" d="M795.97,519.127c4.908,4.076,13.476,16.887,17.553,28.533c0,0-2.412-19.078-6.322-26.315
		s-11.979-13.781-11.896-23.93c0,0,8.236,12.145,16.554,14.475c0,0-3.66-3.078-7.487-10.066c-3.827-6.988-4.575-15.14-10.315-22.128
		c1.747,2.163,11.313,4.825,14.308,3.411c-11.313-3.577-15.806-21.13-20.88-25.788c0,0,7.237,3.91,12.395,1.997
		c0,0-9.483-2.579-16.887-15.14s-12.728-11.646-19.299-22.461c0,0,8.485,8.402,12.977,7.487
		c-7.404-3.327-15.556-31.445-25.705-44.172c3.91,1.581,13.06,10.814,17.386,18.135c-2.496-13.476-16.388-24.707-19.965-29.282
		c0,0,6.405,3.827,9.151,4.575c-4.908-4.076-11.397-13.726-12.062-17.303c2.662-1.248,6.322-7.071,7.154-13.31
		c0.832-6.239,3.078-9.733,9.982-15.14c0,0-6.738,0.665-8.818,4.492c-0.998-10.482,1.581-19.299,3.577-24.124
		c0,0,0.832,6.738,6.073,11.064c0,0-2.246-7.154-2.412-11.48c-0.166-4.326,3.91-14.974,3.66-18.717
		c-0.25-3.743-6.821-13.393-5.906-17.137c1.996,1.165,5.158,5.407,6.572,9.982c1.248-20.63-20.547-32.526-20.547-32.526
		s4.659,0.832,10.731-1.83c0,0-12.395-0.582-19.299-7.32s-14.475-8.735-20.215-9.4c3.577-1.581,12.728-1.248,18.634,2.08
		c-9.65-11.147-24.707-5.74-32.277-9.733c0,0,9.4-4.076,10.731-7.154c-4.159,2.745-11.646,0.915-17.22,2.412
		c-3.939,1.058-5.108,1.132-9.029,3.749c-0.016-2.047-0.115-4.103-0.31-6.165c2.466-2.604,5.344-4.713,8.091-5.154
		c-2.409-0.406-5.394,0.089-8.575,1.184c-3.012-20.464-14.256-41.097-29.415-56.929c-14.861-15.52-19.09-26.082-22.177-33.793
		c-2.844-7.103-4.899-12.234-13.133-15.789c-7.187-3.102-18.567-3.94-32.975-5.002c-17.948-1.322-40.286-2.966-63.446-9.703
		c-52.808-15.36-107.788,2.965-123.38,8.948c-52.712,20.225-85.596,57.172-90.735,63.219c-14.375,4.444-37.382,23.3-57.769,47.436
		c-24.192,28.64-39.126,58.199-40.973,81.097c-4.26,52.823,18.79,68.213,31.573,68.971c0.333,0.019,0.668,0.021,1.008,0.005
		c3.079-0.146,6.442-1.736,9.845-4.218c0.01,0.005,0.02,0.012,0.03,0.017c-0.666,3.577-7.154,13.227-12.062,17.303
		c2.745-0.749,9.151-4.575,9.151-4.575c-3.577,4.575-17.469,15.806-19.965,29.282c4.326-7.32,13.476-16.554,17.386-18.135
		c-10.149,12.728-18.301,40.845-25.705,44.173c4.492,0.915,12.977-7.487,12.977-7.487c-6.572,10.814-11.896,9.899-19.299,22.461
		s-16.887,15.14-16.887,15.14c5.158,1.913,12.395-1.996,12.395-1.996c-5.074,4.658-9.567,22.211-20.88,25.788
		c2.995,1.414,12.561-1.248,14.308-3.411c-5.74,6.988-6.489,15.14-10.315,22.128c-3.827,6.988-7.487,10.066-7.487,10.066
		c8.319-2.329,16.554-14.475,16.554-14.475c0.083,10.149-7.986,16.693-11.896,23.93c-3.91,7.237-6.322,26.315-6.322,26.315
		c4.076-11.646,12.645-24.457,17.553-28.533c1.248,3.743-8.152,15.307-9.483,22.128c-1.331,6.821-0.915,27.701-0.915,27.701
		c2.828-22.211,10.093-27.341,19.577-38.488c-4.159,8.735-3.106,11.535-4.936,17.941c-1.83,6.405-6.073,12.894-8.735,13.726
		c3.244,1.248,8.236-1.664,9.566-3.411c0.998,3.743-11.23,22.211-4.242,32.776c0.083-7.653,7.736-14.891,15.14-19.216
		c-5.823,7.237-13.975,20.131-14.308,31.611c-0.333,11.48,6.988,24.873,6.988,24.873c-1.83-12.395,0.915-23.875,0.915-23.875
		c-0.333,8.568,7.82,18.967,7.82,18.967s-6.405,17.22,3.327,38.266c-1.346-3.139-1.553-21.24,1.83-26.953
		c-0.61,8.319,1.248,20.464,3.078,29.948c1.83,9.483,10.482,13.476,10.482,13.476c-5.74-6.322-3.993-14.558-3.993-14.558
		c4.658,5.49,8.568,12.395,8.568,19.466c0,7.071-3.577,13.144-6.905,15.556c5.074-0.25,12.561-4.243,14.475-10.648
		c-0.998,8.402,5.158,16.471,6.738,20.547c1.581,4.076,1.331,16.221,1.331,16.221c4.825-9.317,6.239-12.561,6.489-20.131
		c0.25-7.57,2.912-9.483,2.912-9.483c3.577,11.036-4.825,29.615,7.237,45.504c-4.825-20.63,4.076-15.972,2.08-29.033
		c3.161,5.823,0.832,20.797,4.076,29.615c3.244,8.818,10.398,15.806,10.398,15.806c-4.825-9.982-2.579-33.608,0.832-41.095
		c-1.165,10.731,0.333,24.041,3.91,30.946c3.577,6.905,3.411,20.547,3.411,20.547c4.159-6.988,4.908-24.956,4.908-24.956
		c2.08,10.731,3.66,36.353,10.149,39.93c-3.327-7.404-0.832-21.047-0.832-21.047c3.161,5.49,1.996,15.584,6.655,27.286
		c4.303,10.808,10.648,15.972,10.648,15.972c-5.574-10.565-1.997-21.462-1.997-21.462c3.494,7.237,3.494,13.976,10.648,23.708
		c7.154,9.733,13.31,11.147,13.31,11.147c-7.737-6.489-7.57-19.715-7.57-19.715c6.572,5.657,13.393,12.894,11.729,24.208
		c-1.664,11.313,0.665,19.05,4.991,24.207c-2.745-9.566,1.248-16.221,5.49-19.216c4.225-2.982,5.74-3.494,7.071-8.568
		c2.662,4.326,8.402,19.882,4.076,28.949c5.906-5.823,8.735-18.301,6.572-25.954c4.076,5.241,5.49,36.353,22.71,43.59
		c-5.74-6.655-8.152-18.301-3.743-31.195c5.49,4.575,6.988,16.138,6.905,19.133c3.577-4.243,1.248-18.052,1.248-18.052
		c3.577,5.74,8.069,21.546,6.322,33.857c4.492-5.324,4.742-19.383,2.163-26.038c5.906,4.326,6.073,16.222,10.731,26.038
		c4.658,9.816,11.313,16.305,17.22,16.471c-4.409-2.828-8.901-15.307-8.901-15.307c9.483,4.575,15.39,12.062,16.055,16.471
		c0.416-8.901-6.489-18.551-9.983-20.381c6.073,0.915,15.722,8.319,18.8,14.974c3.078,6.655,4.658,15.057,16.305,19.882
		c-6.655-6.073-6.322-12.894-5.324-22.211c9.733,9.65,19.993,16.693,19.993,30.669c0.931-3.35,4.045-11.078,2.692-20.22
		c-1.589-10.738-9.428-16.305-4.437-31.722c0.555,15.861,13.199,19.965,13.754,34.273c4.548-9.317,11.139-18.693,12.534-20.076
		c0.998,9.317,0.697,23.182-5.958,29.255c11.646-4.825,13.227-13.227,16.305-19.882c3.078-6.655,12.728-14.059,18.8-14.974
		c-3.494,1.83-10.398,11.48-9.982,20.381c0.665-4.409,6.572-11.896,16.055-16.471c0,0-4.492,12.478-8.901,15.307
		c5.906-0.166,12.561-6.655,17.22-16.471c4.659-9.816,4.825-21.712,10.731-26.038c-2.579,6.655-2.329,20.714,2.163,26.038
		c-1.747-12.312,2.745-28.117,6.322-33.857c0,0-2.329,13.809,1.248,18.052c-0.083-2.995,1.414-14.558,6.905-19.133
		c4.409,12.894,1.996,24.54-3.743,31.195c17.22-7.237,18.634-38.349,22.71-43.59c-2.163,7.653,0.665,20.131,6.572,25.954
		c-4.326-9.067,1.414-24.623,4.076-28.949c1.331,5.074,2.194,6.367,4.738,10.869c2.163,3.827,5.074,4.076,2.329,13.643
		c9.317-8.818,2.496-26.121,22.214-45.143c0,0,0.166,13.227-7.57,19.715c0,0,6.156-1.414,13.31-11.147
		c7.154-9.733,7.154-16.471,10.648-23.708c0,0,3.577,10.898-1.997,21.462c0,0,6.345-5.164,10.648-15.972
		c4.659-11.702,3.494-21.795,6.655-27.286c0,0,2.496,13.643-0.832,21.047c6.489-3.577,8.069-29.199,10.149-39.93
		c0,0,0.749,17.969,4.908,24.956c0,0-0.166-13.643,3.411-20.547c3.577-6.905,5.074-20.215,3.91-30.946
		c3.411,7.487,5.657,31.112,0.832,41.095c0,0,7.154-6.988,10.398-15.806c3.244-8.818,0.915-23.792,4.076-29.615
		c-1.997,13.061,6.905,8.402,2.08,29.033c12.062-15.889,3.66-34.467,7.237-45.504c0,0,2.662,1.913,2.912,9.483
		c0.25,7.57,1.664,10.814,6.489,20.131c0,0-0.25-12.145,1.331-16.221c1.581-4.076,7.736-12.145,6.738-20.547
		c1.913,6.405,9.4,10.398,14.475,10.648c-3.328-2.413-6.905-8.485-6.905-15.556c0-7.071,3.91-13.976,8.568-19.466
		c0,0,1.747,8.236-3.993,14.558c0,0,8.652-3.993,10.482-13.476c1.83-9.483,3.688-21.629,3.078-29.948
		c3.383,5.712,3.177,23.813,1.83,26.953c9.733-21.046,3.328-38.266,3.328-38.266s8.152-10.399,7.82-18.967
		c0,0,2.745,11.48,0.915,23.875c0,0,7.32-13.393,6.988-24.873c-0.333-11.48-8.485-24.374-14.308-31.611
		c7.404,4.326,15.057,11.563,15.14,19.216c6.988-10.565-5.241-29.032-4.242-32.776c1.331,1.747,6.322,4.658,9.566,3.411
		c-2.662-0.832-6.904-7.32-8.735-13.726c-1.83-6.405-0.776-9.206-4.936-17.941c9.483,11.147,16.748,16.277,19.577,38.488
		c0,0,0.416-20.88-0.915-27.701C804.122,534.434,794.722,522.87,795.97,519.127z M218.19,296.578
		c1.749-21.695,16.164-50.015,39.546-77.697c14.44-17.095,30.495-31.703,43.128-39.693c-0.985,1.234-1.957,2.478-2.91,3.733
		c-4.094,5.385-7.807,11.025-11.273,16.783c-3.453,5.765-6.599,11.691-9.339,17.763c-2.717,6.078-5.022,12.312-6.658,18.652
		c5.688-11.968,12.751-23.131,20.486-33.822c3.866-5.348,7.972-10.53,12.089-15.693l12.521-15.379l-0.045-0.037
		c5.426-6.26,37.826-41.888,87.846-61.08c9.95-3.818,36.437-12.823,67.902-14.306c16.331-0.77,34.002,0.487,51.399,5.547
		c23.782,6.918,46.481,8.589,64.721,9.932c13.828,1.018,24.749,1.822,30.998,4.519c6.082,2.626,7.521,6.219,10.134,12.744
		c3.254,8.126,7.71,19.255,23.309,35.546c25.679,26.818,39.73,67.947,18.126,95.972c-37.328-18.805-107.907-36.951-197.217-32.742
		c-63.623,2.998-112.938,18.977-138.102,28.957c2.492-1.945,5.007-3.86,7.573-5.707c8.269-6.048,16.927-11.58,25.983-16.33
		c9.015-4.823,18.502-8.733,28.282-11.48c4.988-1.374,10.064-2.729,15.054-4.241c4.995-1.533,9.984-3.076,14.931-4.762
		c9.869-3.421,19.704-7.044,29.091-11.639c-9.859,3.387-19.839,6.248-29.868,8.88c-10.026,2.677-20.074,5.035-30.212,7.316
		c-5.182,1.185-10.287,2.736-15.25,4.642c-4.971,1.882-9.841,4.022-14.581,6.399c-9.47,4.785-18.429,10.449-26.979,16.592
		c-7.768,5.721-15.194,11.849-22.249,18.338c-0.129,0.066-0.207,0.106-0.225,0.116l0.032,0.06c-0.579,0.533-1.173,1.052-1.747,1.59
		c-3.811,3.589-7.469,7.29-11.096,10.983c-3.64,3.69-7.184,7.451-10.722,11.205c-7.112,7.475-14.091,15.032-21.455,22.203
		c-3.659,3.608-7.443,7.091-11.425,10.35c-3.993,3.232-8.188,6.304-12.936,8.488c4.977-1.615,9.593-4.293,13.929-7.225
		c4.356-2.936,8.436-6.225,12.436-9.577c2.203-1.883,4.366-3.802,6.508-5.739c-1.191,2.209-2.148,4.456-2.88,6.737
		c-5.043,5.238-10.178,10.355-15.862,14.837c-3.25,2.549-6.687,4.9-10.414,6.599c-1.866,0.817-3.809,1.515-5.815,1.736
		c-2.007,0.295-4.066-0.034-5.882-1.017c1.472,1.41,3.655,2.159,5.857,2.258c2.221,0.119,4.449-0.316,6.57-0.956
		c4.262-1.305,8.141-3.491,11.767-5.909c0.145-0.098,0.283-0.204,0.427-0.303l-1.029,1.012c-0.579,0.58-1.138,1.185-1.774,1.693
		c-2.38,2.243-4.991,4.168-7.773,5.771c-2.804,1.552-5.897,2.57-9.089,2.649c-1.601,0.09-3.19-0.167-4.748-0.579
		c-1.57-0.41-3.035-1.147-4.351-2.135c1.981,2.615,5.315,4.278,8.874,4.721c3.566,0.48,7.344-0.254,10.676-1.715
		c-1.75,1.805-3.56,3.55-5.508,4.988c-1.04,0.777-2.135,1.438-3.199,1.915c-1.012,0.44-2.218,0.695-3.343,0.701
		c-2.289,0.076-4.577-1.017-6.556-2.6c-2.028-1.557-3.749-3.582-5.496-5.615c0.935,2.5,2.159,4.929,3.984,7.059
		c0.921,1.051,1.984,2.042,3.277,2.828c1.295,0.769,2.832,1.319,4.466,1.469c1.643,0.117,3.273-0.064,4.884-0.642
		c1.556-0.56,2.891-1.365,4.142-2.205c2.489-1.705,4.657-3.642,6.699-5.662c4.059-4.058,7.642-8.418,11.011-12.897
		c1.673-2.247,3.306-4.515,4.849-6.837c0.572-0.855,1.133-1.711,1.694-2.568c-0.051,0.743-0.087,1.487-0.092,2.236
		c-4.113,10.911-22.589,35.742-30.968,35.197C235.682,358.996,214.148,346.692,218.19,296.578z M472.953,233.2
		c15.283-0.72,29.989-0.766,44.075-0.277c28.194,1.701,57.356,6.434,64.548,9.413c-5.57,0.63-57.227-7.56-113.738-4.193
		c-56.116,3.344-111.519,18.776-111.519,18.776s3.132-3.013,18.069-7.806C400.115,241.872,433.742,235.048,472.953,233.2z
		 M367.801,816.993c-0.25-9.151-4.991-20.547-10.149-27.535C369.547,797.112,371.627,805.597,367.801,816.993z M408.23,793.285
		c1.664,5.49-0.166,15.307-0.166,15.307c-4.159-11.979-16.305-25.123-16.305-25.123c8.319,17.469,3.328,36.935,3.328,36.935
		c-3.494-27.618-15.639-46.252-19.965-50.245c2.995,10.482-0.665,19.466-0.665,19.466c-2.329-16.471-11.646-18.135-14.641-29.282
		c1.497,11.147-2.496,18.301-2.496,18.301c-2.662-22.96-18.135-35.438-20.797-44.256c2.052,10.482,2.052,34.44,0.832,40.54
		c-2.329-15.196-7.903-41.621-12.977-47.611c-5.074-5.99-14.974-23.708-14.863-33.469c-6.877,18.19,9.862,35.681,4.659,52.242
		c-0.444-7.986-16.305-31.5-16.083-45.143c0.222-13.643-0.665-24.402-4.658-27.507c1.22,6.211-3.438,32.499-6.877,38.932
		c1.109-9.982-8.762-46.03-12.533-51.687c1.109,8.651-9.872,24.18-9.872,24.18s6.433-45.476-12.645-90.286
		c-4.548,8.541-6.1,51.244-2.218,60.228c-8.097-5.546-11.902-34.051-11.608-38.488c-2.367,3.771-4.697,19.965-4.697,19.965
		c-2.884-9.872-3.993-20.076-1.664-31.279c2.329-11.203-0.333-27.84-0.333-27.84c-0.111,11.646-8.762,23.847-6.766,34.717
		c-5.879-12.09-4.88-26.176-0.998-32.166c3.882-5.99,9.539-21.074,6.433-39.375c0.879,9.201-9.65,23.736-18.634,30.502
		c4.991-8.208,7.875-15.639,7.432-24.069c-0.444-8.43,4.659-18.079,4.659-18.079c-2.634,0.638-6.627,6.128-6.627,6.128
		c4.409-6.988,3.244-24.873,3.244-24.873c-0.832,5.158-11.23,15.223-11.23,15.223c4.908-6.988,2.745-14.225,7.986-21.712
		c5.241-7.487,14.225-24.707,14.225-24.707c-4.076,1.664-17.303,15.057-17.303,15.057c0.444-6.433,9.234-22.045,18.634-28.034
		c9.4-5.99,10.814-20.464,10.814-20.464c-4.326,12.478-23.209,17.386-28.533,23.792c4.076-8.818,19.383-24.956,20.131-26.204
		c-3.328,0.083-7.986,4.742-11.813,5.99c3.993-5.074,6.892-11.2,16.222-18.634c10.648-8.485,19.632-9.872,24.624-21.296
		c4.991-11.424,14.419-14.142,14.419-14.142c-15.861-0.555-16.789,16.792-33.719,21.296c3.771-3.66,14.086-14.974,16.416-20.076
		c-1.853,3.168-14.641,10.426-18.079,13.31c9.872-10.093,15.528-21.074,21.074-26.287c5.546-5.213,16.083-21.962,17.303-26.731
		c-2.495,5.56-14.863,14.974-22.405,17.303c6.433-14.086,11.203-20.298,18.079-27.396c6.877-7.099,15.528-20.298,15.528-20.298
		c-7.986,5.879-15.417,10.537-15.417,10.537s7.32-15.75,11.092-17.525c-1.669,0.303-3.938,2.022-6.313,4.299
		c0.361-10.674,6.379-20.669,17.985-29.928c0.981-0.454,1.973-0.828,2.969-1.074c-3.827,4.659-5.574,9.483-1.83,16.721
		c-0.499-4.742-0.61-11.203,15.251-18.19c15.447-6.805,22.358-15.07,24.348-19.084c5.069-1.939,10.447-3.833,16.165-5.679
		c18.532-5.98,43.528-11.634,71.541-15.678c1.974,7.466,11.027,9.657,14.446,18.285c-4.409-3.66-21.795-17.137-40.096-12.728
		c5.407,0.499,10.731,7.237,10.731,7.237c-12.561-4.076-29.947-3.327-38.433,0.832c8.735,0.083,12.977,4.159,12.977,4.159
		c-19.882,0-37.518,12.728-40.013,17.553c7.237-4.326,14.391-3.66,14.391-3.66c-16.305,8.069-19.799,20.547-19.799,20.547
		c13.56-13.643,30.946-20.963,47.334-18.717c-3.743-3.577-11.563-4.575-11.563-4.575c8.236-2.828,21.962-0.333,21.962-0.333
		c-3.743-3.161-10.731-4.991-17.386-4.742c6.655-2.745,18.717-2.496,30.696,8.319c0.083-3.66-10.232-12.395-13.476-14.558
		c8.818,1.081,26.121,12.228,29.033,18.052c-0.832-7.986-11.064-16.721-13.643-18.301c6.766,1.553,13.754,8.041,13.754,8.041
		c-0.166-3.716-6.821-12.478-10.87-15.14c4.936,1.359,11.535,6.932,14.142,14.308c2.607,7.376,10.814,13.587,10.814,13.587
		c-3.106-5.102-5.546-9.095-5.269-15.196c1.886,5.213,9.761,12.922,23.57,17.469c-1.054-2.551-10.038-8.208-11.036-14.086
		c1.511,2.316,14.633,8.441,19.91,16.97c0.804-4.575-2.745-9.234-2.745-9.234c4.242,1.414,9.622,7.126,9.511,21.546
		c-1.608-5.879-12.7-11.258-12.7-11.258c4.769,6.6,4.991,12.645,4.27,16.527c-1.719-6.988-10.26-16.638-13.809-18.079
		c3.771,5.324,5.546,10.741,4.658,17.156c-1.165-5.62-8.54-11.443-8.54-11.443c3.771,6.655,1.386,17.469,1.386,17.469
		c-0.61-5.934-4.769-12.423-7.598-15.528c1.886,5.435-0.943,12.755-0.166,14.53c-3.771-5.49-7.043-13.532-8.208-18.911
		c-1.22,8.762-2.884,13.088-1.276,16.083c-4.825-1.165-13.768-14.918-13.768-14.918c-0.152,4.825,0,11.757,4.728,19.577
		c-6.766-3.106-14.974-18.024-23.403-21.629c4.145,2.601,7.154,13.532,7.154,13.532c-6.1-8.43-21.407-12.645-29.282-10.537
		c10.482,1.775,16.638,8.139,16.638,8.139c-10.981-4.159-17.719-6.281-31.279-0.541c10.648-1.664,29.393,0.222,40.096,12.312
		c-0.166-3.217-1.941-7.875-3.549-9.317c7.32,5.268,5.435,11.591,17.414,17.58c-3.494-3.882-4.215-9.816-4.215-9.816
		c7.21,10.315,18.967,16.527,18.967,16.527s-4.575-4.742-5.49-9.899c3.494,6.406,12.145,8.984,12.145,8.984
		c-2.995-4.326-1.913-10.315-0.166-12.894c-0.083,3.494,0.749,6.738,3.743,9.317c2.995,2.579,2.163,5.435,2.163,5.435
		c3.91-2.939,3.161-8.014,2.745-10.01c3.244,2.828,4.426,6.647,3.078,10.398c4.825-3.743,6.073-9.234,3.244-13.31
		c4.243,1.747,5.74,6.156,4.659,9.567c4.908-3.161,6.572-10.814,6.073-13.06c2.329,3.244,1.996,9.067,1.996,9.067
		c5.629-5.185,8.402-12.506,8.624-15.001c0.943,2.717-0.887,10.26-0.887,10.26s11.258-11.424,12.811-21.629
		c-1.886,15.528-14.863,37.268-39.015,37.268c-10.096,0-18.418-1.909-25.602-4.72c-1.634-0.92-3.439-1.935-5.538-3.045
		c-4.616-2.439-9.302-5.008-13.739-7.441c-10.024-6.593-18.388-12.747-28.891-12.378c-4.649-0.106-10.408,1.331-18.318,6.51
		c4.049-1.315,9.151-2.847,14.707-2.594c2.849,0.264,5.674,0.95,8.554,1.971c0.901,0.391,1.805,0.825,2.712,1.356
		c-0.03-0.002-0.062-0.003-0.092-0.006c-4.43-0.515-9.625,0.16-14.964,1.649c-9.073,2.27-19.394,6.88-27.378,14.476
		c-2.857,2.511-5.092,5.087-6.387,7.548c4.96-3.444,11.003-7.144,17.633-10.189c11.164-4.716,24.534-7.721,36.102-5.427
		c3.877,0.942,7.685,2.503,11.344,4.856c-0.087-0.021-0.179-0.041-0.267-0.062c-4.224-1.113-8.449-1.565-12.54-1.504
		c-9.797-0.109-21.013,2.23-29.982,9.729c-1.599,1.212-2.845,2.404-3.655,3.484c3.093-1.856,6.572-3.278,10.14-4.345
		c7.816-2.208,17.883-3.349,26.047-1.926c0.731,0.187,1.328,0.404,1.752,0.647c-0.004,0-0.008,0-0.012,0.001
		c-0.002,0-0.004,0-0.006,0c-11.271,0.483-27.423,5.42-31.198,8.176c-0.73,0.324-1.458,0.652-2.177,0.997
		c0,0,0.536-0.113,1.45-0.289l0,0h0c1.595-0.307,4.354-0.805,7.512-1.235c6.111-0.493,11.749,0,11.749,0
		c-1.541,0.184-2.69,0.6-3.537,1.127c-7.768,2.87-18.356,8.81-27.711,11.045c8.888,0.833,20.079-4.116,27.54-5.844
		c0.355,0.139,0.755,0.221,1.198,0.217c0,0-0.001,0-0.001,0.001c-5.535,1.973-16.89,7.18-21.749,11.949
		c7.431-5.324,26.62-7.653,34.606-6.766c0,0-14.308,5.324-23.514,12.201c2.329-1.553,18.301-6.211,26.842-7.542
		c0,0-11.314,7.764-23.181,12.312c-11.868,4.548-19.411,13.31-24.291,26.731c0,0,5.99-11.092,19.078-18.856
		c13.088-7.764,41.15-14.641,58.12-22.516c0,0-10.87,10.204-23.736,13.532c11.757,0.111,30.724-8.208,36.492-12.866
		c0,0-11.203,13.532-28.648,16.526c-17.445,2.995-20.821,3.771-34.186,26.454c16.305-18.856,32.887-20.63,39.431-20.686
		c-14.586,7.154-14.197,14.974-26.343,23.126c4.417,0.349,19.01-12.207,32.662-20.16c-15.9,13.445-25.586,31.677-24.92,48.399
		c-7.943,11.004-10.815,21.973-11.371,33.818c-7.671,6.787-15.211,23.751-12.177,38.6c2.995-11.147,8.839-18.468,11.158-19.133
		c0.156,11.979-5.002,25.586-5.002,25.586c6.655-5.288,7.099-7.451,7.099-7.451c0.485,1.339,1.139,2.135,1.605,3.212
		c0.017,0.198,0.037,0.386,0.054,0.585c-11.346,31.674-10.465,42.689,4.842,56.625c7.361,26.236,19.389,45.688,36.622,58.812
		c-14.49-6.003-25.459-15.563-32.391-36.823c1.595,4.504-1.582,10.537-1.582,10.537c-5.546-8.873-1.775-24.104-8.984-29.91
		c2.218,6.839-2.44,21.48-7.653,28.357c6.017-20.584-1.022-34.637-2.577-46.464c0.466,8.383-5.298,18.107-5.298,18.107
		c1.553-13.903-1.996-34.866-0.555-48.73c-3.106,4.104-5.324,15.085-5.324,15.085c-4.88-9.317-2.995-42.24-2.995-42.24
		c-10.759,16.174-23.847,58.545-15.972,73.296c0.887-15.417,9.206-32.166,9.206-32.166c-0.555,14.863,0.31,41.927-8.552,73.649
		c6.167-4.437,12.323-14.419,12.988-18.079c1.497,9.151-6.322,33.774-9.65,39.264c5.657-2.828,10.981-12.811,10.981-12.811
		c0.416,14.724,11.064,24.208,10.565,46.502c1.83-9.567,5.324-21.047,4.742-28.949c6.572,10.981,5.546,32.859,6.877,40.512
		c1.331,7.653,10.093,15.528,12.534,30.613c0-14.086,4.88-27.064,9.539-31.5c-2.884,11.314,0.887,38.266,13.421,51.909
		c-6.655-1.775-13.754-12.866-13.754-12.866c0.998,8.097,3.328,16.859,9.428,22.96c6.1,6.101,10.315,21.518,10.315,21.518
		s3.106-8.762,2.662-14.641c3.771,9.872,1.553,27.175,10.537,40.984c-12.145-5.657-12.645-17.137-18.967-26.232
		c-6.322-9.095-4.88-14.974-9.761-21.185c1.553,12.312-2.44,26.509-2.44,26.509c-0.776-17.636-4.991-19.299-5.657-28.395
		c-0.665-9.095-0.555-8.762-3.771-18.856c-1.22,6.433-3.106,25.067-1.22,31.168c-5.324-6.544-4.326-32.388-7.542-40.928
		c-3.217-8.541-8.984-17.636-10.204-26.398c-1.996,11.424,1.553,21.518,4.769,30.502c3.217,8.984,1.22,25.511,1.22,25.511
		s-4.769-15.306-4.769-21.851c-2.662,3.882-2.773,11.203-2.773,11.203c-3.66-9.206-1.996-30.613-5.102-40.706
		c-3.106-10.094-9.317-18.745-10.315-28.284c-1.664,5.657-2.995,24.18-0.998,35.05c-4.88-5.99-13.421-33.497-3.66-55.68
		c-6.322,5.879-16.083,25.067-17.525,38.599c-4.548-16.083,4.104-30.003,1.664-46.724c-0.333,6.239-8.873,17.442-8.873,17.442
		c0.665-16.638,8.762-30.28,6.1-46.363c0.471,4.311-6.1,13.421-6.1,13.421s-2.551-22.627-1.387-32.776
		c1.165-10.149,7.82-22.627,4.659-35.438c-1.054,13.199-14.475,33.83-14.585,42.703c-2.44-7.653-0.887-26.176,5.213-42.814
		c6.1-16.638,13.088-35.05,13.088-35.05s-19.854,32.388-20.63,36.492c-0.444-9.982,1.664-22.405,9.317-31.611
		c7.653-9.206,11.313-20.409,11.313-20.409c-7.21,9.539-13.31,11.979-13.31,11.979s3.438-13.865,13.088-23.847
		c9.65-9.983,12.645-23.126,12.645-23.126c-6.821,11.314-16.138,15.14-16.138,15.14c2.329-10.482,18.135-23.958,25.788-50.911
		c-5.324,7.82-19.632,22.627-29.615,28.45c-9.983,5.823-22.627,18.054-23.126,29.325c7.82-12.299,21.906-20.396,26.454-23.391
		c-3.217,8.319-11.646,12.755-16.194,24.18c-4.548,11.424-8.762,38.488-19.965,42.481c6.322,2.107,15.196-7.099,16.859-10.315
		c-0.998,7.875-9.095,16.305-11.757,24.956c-2.662,8.651-0.887,23.404-0.887,23.404c1.331-10.426,7.542-20.076,7.542-20.076
		s0.61,22.239-0.555,35.715c-1.165,13.476,3.66,13.144,4.326,21.961c0.665,8.818-0.998,20.131-0.665,23.792
		c-5.99-12.312-5.158-25.622-9.151-35.937c-3.993-10.315-8.485-27.785-8.485-27.785c3.161,22.793-4.326,36.103-2.995,49.247
		c-4.326-10.981-3.494-34.273-10.981-46.419c0.665,9.65-11.147,23.126-10.482,29.781c-5.158-16.471,2.442-34.704,10.149-47.583
		c12.145-20.298,6.489-45.587,9.65-55.569c-3.993,6.544-5.768,22.405-12.09,28.062c4.104-7.875,4.769-26.731,4.769-26.731
		c-3.993,13.754-13.643,25.372-15.196,30.169c1.322-11.636,7.32-28.062,7.32-28.062c-8.208,8.097-17.636,22.96-17.636,22.96
		c1.47-8.596,8.541-24.18,15.972-31.722c7.431-7.542,8.873-15.085,9.317-22.516c-3.66,10.093-14.308,22.849-25.289,27.064
		c8.097-7.431,25.733-25.178,27.286-66.217c-6.932,30.558-29.559,37.712-31.057,49.691c3.327-4.159,11.979-7.154,11.979-7.154
		c-2.329,9.483-31.445,32.443-22.96,61.392c1.331-9.151,6.322-20.131,12.312-23.293c-1.165,18.468-19.133,30.946-13.857,47.583
		c1.182-16.12,19.015-21.13,21.344-32.443c1.165,11.48-10.315,19.632-18.301,39.431c-7.986,19.799-0.333,41.927-0.333,41.927
		c-0.166-19.799,9.151-38.932,18.135-45.42c-7.487,14.475-2.662,41.926,11.314,65.219c1.83-9.983,9.317-17.802,9.151-22.294
		c2.995,7.986,1.165,23.792-1.996,37.434c-3.161,13.643-0.333,25.289,6.655,34.273c-3.827-10.648,0.499-30.28,0.499-30.28
		c5.324,9.151,1.497,31.944,24.956,37.102c-12.811-9.483-12.478-24.79-12.312-30.779c5.99,4.825,17.469,37.934,17.469,37.934
		c-0.166-9.983,12.145-21.462,12.145-21.462c-7.487,15.14-10.648,50.245,2.496,67.881c-3.161-9.317,1.165-19.133,3.993-24.956
		c-1.664,8.984,10.482,43.424,20.131,50.744c-4.659-8.152-6.322-24.624-3.494-30.613c0.333,7.653,8.485,34.939,17.303,40.928
		c-4.991-10.981-5.99-23.126-2.329-31.611c0.665,11.147,9.65,36.602,21.296,43.59c-3.993-7.154-0.333-27.618-0.333-27.618
		c2.329,13.643,11.314,25.788,14.974,40.928c-0.499-8.818,6.322-20.131,6.322-20.131c0.166,9.816,3.161,18.301,7.487,23.459
		c4.326,5.158,1.83,7.487,6.322,15.306c4.492,7.82,0.998,18.967,6.322,28.117C421.207,826.726,418.378,801.604,408.23,793.285z
		 M479.105,287.089c7.237,4.492,6.322,11.064,3.411,15.972C483.182,298.735,481.934,290.25,479.105,287.089z M512.311,325.161
		c2.884,3.771,5.315,6.822,2.44,8.43c-3.272,1.83-7.32-1.626-8.208-23.274C507.986,316.842,509.428,321.39,512.311,325.161z
		 M511.896,284.26c-0.998,1.248-1.441,7.733-3.743,6.738C505.712,289.945,509.649,285.092,511.896,284.26z M524.692,396.702
		c7.099,2.44,14.419,1.664,18.745-4.769c-1.996,7.099-11.646,11.868-21.74,11.203c-10.093-0.665-19.743-7.098-21.629-12.2
		c-1.886,5.102-11.535,11.535-21.629,12.2c-10.093,0.665-19.743-4.104-21.74-11.203c4.326,6.433,11.646,7.21,18.745,4.769
		c7.099-2.44,10.759-7.875,9.872-18.19c8.319,11.092-2.773,19.965-2.773,19.965s10.477-3.661,10.648-12.866
		c0.222-11.923-12.755-22.849-29.282-22.96c-16.526-0.111-23.181,9.095-24.291,21.629c-5.42-20.545,8.097-31.849,24.956-31.833
		c13.539,0.012,24.069,8.873,35.493,8.873c11.424,0,21.954-8.861,35.493-8.873c16.859-0.015,30.376,11.288,24.956,31.833
		c-1.109-12.534-7.764-21.74-24.291-21.629c-16.527,0.111-29.504,11.036-29.282,22.96c0.171,9.205,10.648,12.866,10.648,12.866
		s-11.092-8.873-2.773-19.965C513.933,388.827,517.593,394.262,524.692,396.702z M518.037,413.451
		c-5.989,5.435-11.646,10.204-17.968,10.204c0,0,0,0,0,0s0,0,0,0c-6.322,0-11.979-4.77-17.968-10.204
		c11.858,6.871,17.958-4.749,17.968-4.769v-0.001l0,0l0,0v0.001C500.079,408.702,506.179,420.322,518.037,413.451z M642.084,653.364
		c-0.998,9.539-7.21,18.19-10.315,28.284c-3.106,10.093-1.442,31.5-5.102,40.706c0,0-0.111-7.32-2.773-11.203
		c0,6.544-4.769,21.851-4.769,21.851s-1.996-16.527,1.22-25.511s6.766-19.078,4.769-30.502c-1.22,8.762-6.988,17.857-10.204,26.398
		c-3.216,8.541-2.218,34.384-7.542,40.928c1.885-6.1,0-24.734-1.22-31.168c-3.217,10.094-3.106,9.761-3.771,18.856
		c-0.666,9.095-4.88,10.759-5.657,28.395c0,0-3.993-14.197-2.44-26.509c-4.88,6.211-3.438,12.09-9.761,21.185
		c-6.322,9.095-6.821,20.575-18.967,26.232c8.984-13.809,6.766-31.112,10.537-40.984c-0.444,5.879,2.662,14.641,2.662,14.641
		s4.215-15.417,10.315-21.518c6.1-6.1,8.43-14.863,9.428-22.96c0,0-7.099,11.092-13.754,12.866
		c12.533-13.643,16.305-40.596,13.421-51.909c4.658,4.437,9.539,17.414,9.539,31.5c2.44-15.085,11.203-22.96,12.534-30.613
		c1.331-7.653,0.305-29.531,6.877-40.512c-0.582,7.903,2.911,19.383,4.742,28.949c-0.243-10.838,2.151-18.64,4.721-25.497
		c0.312,0.218,0.505,0.492,0.567,0.595c0.216,0.359,0.575,0.61,0.986,0.69c0.095,0.018,0.19,0.028,0.286,0.028
		c0.318,0,0.629-0.102,0.888-0.295l0.501-0.374c0.766,0.16,1.957,0.247,3.402-0.194c1.744-0.531,2.847-1.763,3.395-2.538
		c0.098-0.023,0.197-0.057,0.295-0.083c9.509,22.119,1.043,49.357-3.811,55.314C645.079,677.543,643.748,659.02,642.084,653.364z
		 M567.86,555.235c-2.016-3.347-4.1-6.806-6.102-10.004c-1.621-2.591-3.3-5.727-5.133-9.588l-0.316-0.663
		c-0.038-0.08-0.073-0.154-0.11-0.233c1.042-12.784,8.161-11.082,18.379-10.367c-0.016-0.013-0.034-0.023-0.05-0.036
		c1.657,0.546,3.244,1.31,4.686,2.144c-1.784,0.524-3.525,1.217-5.002,2.294c2.3-0.915,4.708-1.024,7.122-0.993
		c0.356,0.225,0.707,0.443,1.068,0.675c-2.081,0.503-4.11,1.221-5.852,2.42c2.487-1.044,5.11-1.217,7.742-1.185
		c0.364,0.241,0.733,0.489,1.101,0.737c-0.596,0.127-1.195,0.247-1.782,0.415c-1.679,0.477-3.314,1.156-4.723,2.135
		c2.705-1.169,5.584-1.316,8.452-1.226c0.317,0.219,0.639,0.445,0.958,0.668c-0.674,0.126-1.345,0.266-2.008,0.442
		c-1.8,0.477-3.556,1.179-5.064,2.217c1.671-0.747,3.454-1.101,5.233-1.241c1.264-0.099,2.531-0.091,3.802-0.033
		c0.281,0.201,0.564,0.403,0.847,0.607c-0.785,0.131-1.566,0.284-2.336,0.486c-1.856,0.484-3.655,1.219-5.208,2.282
		c1.302-0.583,2.648-0.944,4.014-1.151c-4.14,0.78-7.966,2.938-11.194,6.421c-3.996,4.311-6.525,10.128-7.039,15.242
		C568.849,556.875,568.352,556.051,567.86,555.235z M598.838,540.532c-6.728-0.572-13.175,2.129-18.37,7.893
		c-3.483,3.864-5.869,8.649-6.83,13.077c0.836,1.319,1.673,2.641,2.501,3.924c0.76-2.105,1.402-4.194,2.19-6.214
		c0.862-2.212,1.915-4.373,3.511-6.198c-1.876,1.537-3.335,3.576-4.579,5.676c-0.575,0.97-1.106,1.959-1.632,2.944
		c0.94-4.008,3.159-8.387,6.311-11.883c2.688-2.984,9.547-9.02,19.339-6.842c-0.826,0.091-1.65,0.204-2.467,0.367
		c-2.093,0.419-4.155,1.133-5.894,2.314c1.904-0.891,3.969-1.248,6.014-1.331c1.788-0.071,3.574,0.066,5.361,0.274
		c0.156,0.127,0.312,0.25,0.468,0.377c-1.199,0.088-2.396,0.225-3.578,0.456c-5.855,0.54-11.439,3.515-16.131,8.768
		c-2.899,3.245-5.089,6.989-6.402,10.632c0.309-1.086,0.608-2.165,0.947-3.224c0.765-2.401,1.743-4.772,3.463-6.699
		c-2.001,1.635-3.413,3.935-4.565,6.25c-0.768,1.537-1.45,3.103-2.175,4.607c0.464,0.717,0.924,1.413,1.385,2.119
		c0.056-0.167,0.12-0.334,0.174-0.501c-0.046,0.184-0.1,0.369-0.141,0.551c0.621,0.95,1.247,1.922,1.864,2.852l0.179,0.082
		c1.625-4.517,3.644-8.923,6.897-12.595c-1.886,1.545-3.578,3.364-5.066,5.344c-0.302,0.401-0.565,0.83-0.853,1.242
		c1.257-3.209,3.228-6.5,5.768-9.343c2.659-2.975,9.092-8.815,18.068-8.142c-0.373,0.054-0.746,0.107-1.117,0.178
		c-2.093,0.401-4.158,1.11-5.885,2.304c1.894-0.905,3.958-1.254,5.997-1.32c1.993-0.063,3.98,0.138,5.967,0.42
		c0.117,0.099,0.234,0.196,0.351,0.295c-1.309,0.059-2.619,0.171-3.914,0.398c-2.155,0.377-4.291,1.078-6.063,2.307
		c1.941-0.941,4.067-1.279,6.161-1.322c2.008-0.039,4.007,0.187,6.007,0.489c0.103,0.089,0.206,0.176,0.309,0.265
		c-1.284,0.042-2.569,0.138-3.842,0.343c-2.081,0.334-4.136,0.987-5.897,2.092c-4.012,1.587-7.816,4.31-11.204,8.13
		c-1.961,2.21-3.606,4.634-4.912,7.098c-0.259,0.391-0.523,0.78-0.768,1.178c-1.069,1.736-2.026,3.531-2.97,5.313
		c0.28,0.41,0.563,0.837,0.843,1.243c-0.189,0.885-0.329,1.753-0.401,2.59c-2.838-4.085-5.633-8.278-8.368-12.596
		c-0.811-1.281-1.636-2.612-2.463-3.957c-0.327-1.089-0.469-2.378-0.405-3.807c0.453,0.723,0.9,1.419,1.351,2.132
		c0.3-2.151,0.799-4.305,1.525-6.386c0.76-2.135,1.732-4.237,3.236-6.009c-1.789,1.492-3.166,3.466-4.32,5.52
		c-0.634,1.143-1.194,2.327-1.695,3.541c0.49-4.298,2.588-9.456,6.273-13.434c2.769-2.988,8.255-7.14,16.297-5.516
		c-0.356,0.074-0.712,0.147-1.064,0.237c-1.922,0.49-3.781,1.251-5.386,2.35c3.328-1.512,6.956-1.625,10.466-1.284
		c0.163,0.126,0.325,0.25,0.488,0.377C599.076,540.497,598.957,540.515,598.838,540.532z M609.284,560.298
		c1.979-0.972,4.162-1.284,6.299-1.279c2.077,0.007,4.137,0.306,6.196,0.684c0.063,0.059,0.126,0.117,0.189,0.175
		c-1.437,0.012-2.88,0.087-4.308,0.305c-2.146,0.328-4.281,0.994-6.038,2.216c1.926-0.932,4.041-1.233,6.114-1.228
		c2.083,0.007,4.149,0.312,6.214,0.695l0.013-0.124c0.095,0.09,0.19,0.18,0.285,0.27c-1.463,0.008-2.933,0.079-4.387,0.302
		c-2.1,0.32-4.192,0.977-5.901,2.187c1.88-0.921,3.949-1.211,5.976-1.199c1.967,0.013,3.917,0.303,5.87,0.663
		c-1.225,0.031-2.448,0.128-3.654,0.342c-2.095,0.369-4.147,1.096-5.853,2.296c1.876-0.913,3.929-1.277,5.951-1.31
		c2.029-0.034,4.043,0.248,6.028,0.668l0.01-0.075c0.095,0.093,0.187,0.186,0.282,0.278c-1.294,0-2.589,0.067-3.871,0.264
		c-2.166,0.329-4.302,1.039-6.062,2.276c1.931-0.95,4.055-1.294,6.139-1.289c1.944,0.004,3.87,0.298,5.776,0.706
		c0.09,0.09,0.18,0.18,0.27,0.269c-1.1-0.009-2.202,0.03-3.299,0.153c-2.324,0.263-4.666,0.918-6.548,2.262
		c2.056-1.056,4.357-1.339,6.591-1.273c1.689,0.054,3.362,0.301,5.023,0.642c0.12,0.122,0.243,0.245,0.363,0.367
		c-1.123-0.008-2.248,0.038-3.368,0.169c-2.228,0.262-4.472,0.901-6.271,2.196c1.973-1.007,4.177-1.274,6.315-1.207
		c1.714,0.057,3.41,0.324,5.099,0.673c0.096,0.1,0.195,0.201,0.291,0.301c-1.169,0.002-2.34,0.055-3.503,0.212
		c-2.018,0.271-4.029,0.883-5.685,2.014c0.03,0,0.06,0,0.089,0c1.79-0.818,3.743-1.072,5.653-1.025
		c1.76,0.046,3.5,0.327,5.237,0.686c0.079,0.084,0.159,0.168,0.238,0.252c-1.175,0.009-2.354,0.067-3.524,0.236
		c-0.565,0.081-1.127,0.199-1.683,0.339c0.739,0.144,1.457,0.364,2.146,0.673c1.623,0.076,3.232,0.341,4.843,0.671
		c0.062,0.067,0.124,0.134,0.185,0.202c-1.121,0.017-2.245,0.082-3.359,0.25c-1.905,0.287-3.807,0.895-5.326,2.025
		c1.695-0.844,3.568-1.082,5.392-1.037c1.683,0.043,3.348,0.32,5.015,0.659c0.071,0.079,0.141,0.158,0.211,0.236
		c-1.085,0.029-2.174,0.103-3.253,0.279c-1.802,0.292-3.594,0.889-5.027,1.963c1.608-0.788,3.376-1.015,5.099-0.976
		c1.629,0.038,3.239,0.307,4.857,0.63c0.055,0.064,0.109,0.127,0.165,0.19c-1.08,0.05-2.164,0.147-3.233,0.354
		c-1.64,0.316-3.258,0.905-4.551,1.903c1.469-0.713,3.074-0.935,4.643-0.917c1.577,0.02,3.138,0.272,4.704,0.583l0.009-0.097
		c0.087,0.102,0.169,0.203,0.255,0.305c-0.984,0.063-1.97,0.169-2.941,0.37c-1.564,0.322-3.101,0.902-4.332,1.858
		c1.407-0.67,2.936-0.885,4.433-0.873c1.479,0.014,2.944,0.241,4.413,0.528c0.087,0.106,0.168,0.209,0.254,0.315
		c-0.875,0.082-1.749,0.193-2.611,0.378c-1.484,0.322-2.971,0.836-4.151,1.753c1.351-0.629,2.819-0.779,4.253-0.769
		c1.325,0.017,2.639,0.194,3.951,0.423c0.128,0.161,0.248,0.32,0.374,0.48c-1.198,0.315-2.553,0.652-3.247,0.759
		c-1.414,0.217-2.721,1.725-4.168,2.027c-1.448,0.303-2.284-0.443-3.732-0.14c-1.448,0.303-0.877,1.732-3.166,1.847
		c-4.372-0.174-8.134,2.34-10.408,5.549c-2.274,3.209-0.999,8.976-1.401,9.948c-0.402,0.972-1.034,1.318-2.344,2.884
		c-0.959,1.146-1.649,6.849-1.952,9.831c-4.363-3.982-8.217-8.122-11.316-11.569c-6.721-7.476-13.282-15.654-19.625-24.426
		l0.015-0.008c-0.597-1.135-0.846-2.576-0.789-4.204c0.468,0.664,0.94,1.351,1.407,2.004c0.925-2.495,1.797-4.972,2.857-7.366
		c1.208-2.73,2.676-5.374,4.72-7.62c-2.322,1.957-4.183,4.457-5.773,7.068c-1.157,1.896-2.184,3.861-3.203,5.804
		c0.015-0.358,0.04-0.723,0.085-1.098c0.801-2.029,1.653-4.029,2.642-5.965c1.345-2.635,2.951-5.159,4.971-7.381
		c-1.931,1.627-3.623,3.549-5.14,5.601c1.267-2.564,2.955-5.129,4.995-7.43c3.095-3.489,11.111-10.804,22.003-8.22
		c-0.89,0.056-1.779,0.138-2.661,0.282c-2.163,0.352-4.31,1.041-6.084,2.273c1.943-0.944,4.075-1.269,6.17-1.287
		c2.104-0.016,4.195,0.267,6.281,0.637l0.003-0.027c0.081,0.074,0.163,0.148,0.245,0.222c-1.38,0.014-2.764,0.086-4.135,0.289
		C613.298,558.359,611.093,559.037,609.284,560.298z M626.292,563.956c-0.092,0.001-0.184,0.003-0.276,0.004l0.026-0.246
		C626.126,563.795,626.208,563.876,626.292,563.956z M594.279,638.057c-1.649-5.91-0.444-11.868,0.887-16.527
		c0,6.211,3.106,17.192,3.106,17.192c-0.333-13.421,1.263-18.856,6.344-24.291c0.494-0.529,0.987-1.064,1.477-1.605
		c1.408,1.537,2.953,3.172,4.592,4.838c-0.789,1.296-1.699,2.651-2.763,4.088c-8.873,11.979-4.104,22.294-7.209,31.944
		C601.666,649.157,595.61,642.826,594.279,638.057z M657.579,606.867c-0.088,0.566-0.468,0.976-0.848,0.917
		c-0.38-0.059-0.616-0.566-0.528-1.131c0.088-0.566,0.468-0.976,0.848-0.917C657.431,605.795,657.667,606.301,657.579,606.867z
		 M658.148,609.398c0.572-0.028,1.05,0.261,1.069,0.645c0.019,0.384-0.43,0.718-1.002,0.745c-0.572,0.028-1.05-0.261-1.069-0.645
		C657.128,609.759,657.576,609.425,658.148,609.398z M653.896,605.426c-0.982,0.883-1.994,1.793-2.863,1.752
		c-0.869-0.041-2.255-1.089-2.867-1.091c-0.612-0.002-0.582,1.574-1.119,1.779c-0.537,0.205-2.15,0.324-2.609,0.736
		c-0.459,0.413,0.078,0.706-0.261,1.07s-0.514,0.292-0.9,0.809c-0.386,0.516-0.735,1.878-1.863,2.06
		c-1.129,0.182-2.005-1.138-2.542-0.378c-0.537,0.76,0.836,1.856,0.456,2.42c-0.381,0.564-0.788-0.013-1.256,0.578
		c-0.468,0.59-0.39,3.454-1.009,3.012c-0.619-0.442-0.64-2.254-1.072-1.81c-0.433,0.444-1.127,3.066-0.707,3.409
		c0.42,0.344,0.622,1.494,0.345,1.742c-0.276,0.248-0.794-0.451-1.276-0.185c-0.482,0.266-0.498,1.668-1.034,1.318
		c-0.536-0.35,0.274-1.855,0.406-2.695c0.037-0.238-0.809-0.16-1.058-0.436c-0.248-0.276,0.487-3.655,1.223-4.317
		c0.736-0.662,1.592-0.266,1.929-0.569c0.337-0.303-1.244-1.322-0.373-2.328c0.872-1.005,1.672-0.67,2.362-1.014
		c0.69-0.343,0.593-2.364,1.538-3.287c0.945-0.924,1.515-0.844,2.058-1.166s0.568-1.343,1.387-1.913
		c0.819-0.57,2.012-0.477,2.84-0.667c0.828-0.19,1.647-1.314,3.362-1.69c1.714-0.376,3.829,1.051,4.283,1.309
		c0.454,0.258,1.307-0.953,2.122-0.909c0.816,0.043,0.159,0.856,1.036,1.708C655.58,605.694,654.878,604.543,653.896,605.426z
		 M654.258,600.724c-0.139,0.61-0.215,1.245-0.745,1.195c-0.755-0.211-0.69-2.297-0.027-2.324
		C654.149,599.568,654.397,600.114,654.258,600.724z M640.831,602.893c-1.1-0.669-0.402-1.558-0.055-1.912
		c0.348-0.354,0.924-0.083,1.106-0.204c0.182-0.122-0.186-0.623,0.298-1.057c0.484-0.434,0.706-0.094,1.203-0.375
		c0.497-0.28,0.132-0.826,1.01-1.283c0.879-0.457,1.329,0.137,2.052-0.216c0.723-0.352,1.17-0.642,1.597,0.388
		c0.324,0.541-0.688,0.993-1.332,1.203c-0.643,0.21-1.332,0.277-1.841,0.775s-0.136,0.913-0.624,1.435
		c-0.488,0.522-0.993,0.144-1.46,0.273C642.318,602.049,641.931,603.562,640.831,602.893z M628.878,614.99
		c1.251,0.096,0.427,3.499-0.468,3.305C627.316,618.003,627.627,614.894,628.878,614.99z M631.521,609.799
		c-0.071-0.727,1.031-1.676,1.583-0.507c0.551,1.169-1.451,3.872-2.387,3.269C630.112,612.197,631.591,610.526,631.521,609.799z
		 M634.781,606.577c-0.47,0.589-1.195,2.281-1.76,1.375c-0.565-0.906,1.077-2.134,1.556-2.897c0.479-0.763-0.112-2.021,0.284-2.461
		c0.396-0.439,0.747-0.048,1.191-0.156c0.444-0.108,0.063-0.763,0.53-1.1c0.467-0.337,2.097,0.736,2.57,0.893
		c0.474,0.157,0.505,2.042-0.924,2.952c-0.7,0.394-1.853,0.099-2.384,0.742C635.315,606.569,635.251,605.989,634.781,606.577z
		 M639.141,599.579c-0.372-1.247,2.285-2.179,2.733-1.125C642.12,599.19,639.513,600.826,639.141,599.579z M651.88,597.753
		c-0.852,0.101-1.561-0.317-1.427-1.217c0.134-0.9,2.989-0.686,3.166,0.375C653.609,597.64,652.732,597.652,651.88,597.753z
		 M640.117,622.695l-0.356,2.297c-0.058,0.371-0.405,0.626-0.777,0.568c-0.372-0.058-0.626-0.405-0.568-0.777l0.356-2.296
		c0.058-0.372,0.406-0.626,0.777-0.568C639.92,621.975,640.175,622.323,640.117,622.695z M644.048,620.242
		c-0.177,0.259-0.48,0.412-0.794,0.425c-0.8,0.032-1.67-0.449-1.718-0.913c-0.058-0.558,1.016-1.523,1.445-1.909
		s0.225-2.033,1.329-1.916C645.284,616.032,644.827,619.107,644.048,620.242z M646.208,610.866c0.753-0.968,2.988-1.396,3.505-0.127
		c0.517,1.269-1.172,1.982-2.065,2.701c-0.808,0.768-1.174,1.887-1.864,1.259C645.096,614.071,645.456,611.834,646.208,610.866z
		 M648.183,615.609c0.099-1.864,3.479-2.794,4.054-1.425C652.61,614.958,648.084,617.473,648.183,615.609z M651.587,609.967
		c0.36-0.135,0.815,0.189,1.016,0.725c0.201,0.536,0.073,1.08-0.287,1.215c-0.36,0.135-0.815-0.189-1.016-0.725
		C651.098,610.646,651.227,610.102,651.587,609.967z M651.153,617.987c-0.354-0.764,1.839-3.22,2.733-1.958
		C654.661,617.122,651.507,618.751,651.153,617.987z M651.412,591.923c-1.567-0.215-3.363-0.019-5.329,0.879
		c-3.519-0.59-8.643,1.038-11.444,4.601c-0.613,0.204-1.548,0.618-2.211,1.374c-0.592,0.676-0.729,1.406-0.82,1.888
		c-0.056,0.296-0.082,0.408-0.122,0.442c-0.243,0.218-0.518,0.353-0.865,0.522c-0.445,0.217-0.997,0.487-1.552,0.985
		c-0.694,0.624-0.971,1.303-1.264,2.022c-0.196,0.483-0.419,1.03-0.837,1.733c-0.579,0.977-0.793,1.802-0.964,2.466
		c-0.177,0.686-0.253,0.937-0.543,1.185c-0.95,0.809-2.938,3.471-4.058,6.997c0.134-2.246,0.336-4.214,0.639-4.756
		c0.807-1.447,2.939-2.531,3.59-3.782c0.651-1.251,1.475-5.209,2.089-6.87c0.614-1.661,4.257-6.989,6.171-7.266
		c1.914-0.278,4.119-1.095,5.505-1.898c1.386-0.802,4.101-0.976,5.752-1.183c1.55-0.194,3.744-0.108,5.974,0.266
		C651.219,591.659,651.318,591.791,651.412,591.923z M625.539,606.107c0.286,0.117-0.281,1.709-0.569,2.19
		c-0.289,0.481-1.673,1.656-1.792,1.431c-0.119-0.226,0.334-0.924,0.576-1.766C623.995,607.12,624.824,605.96,625.539,606.107z
		 M625.515,598.599c1.053-2.223,5.209-4.572,5.568-4.173c0.3,0.396-3.15,2.145-4.55,5.4c-1.4,3.256-2.328,5.831-2.604,5.524
		C623.653,605.043,624.462,600.821,625.515,598.599z M649.629,589.818c-1.349,0.063-4.92,1.178-5.077,0.778
		c-0.157-0.399,2.094-1.644,3.171-1.649C648.8,588.942,650.038,588.938,649.629,589.818z M580.614,617.642
		c1.274-1.18,2.389-2.266,3.406-3.316c4.064-4.194,7.808-8.944,11.181-14.153c1.019,1.255,2.045,2.487,3.073,3.71
		c-6.441,9.738-14.641,15.383-24.451,19.411C576.184,621.518,578.456,619.638,580.614,617.642z M587.831,683.2
		c2.08,6.433,0.666,19.161-8.152,26.232C583.755,702.278,588.247,688.33,587.831,683.2z M571.791,653.28
		c-0.499-8.485,6.821-21.379,13.643-23.126c-5.573,5.49-8.319,10.731-7.986,25.539c0.333,14.807-15.306,23.126-15.306,23.126
		C569.96,670.167,572.197,660.189,571.791,653.28z M579.61,579.264c1.233,1.798,2.477,3.572,3.728,5.324
		c-1.978,3.24-4.117,6.375-6.411,9.383c-3.132,4.115-6.526,8.018-10.115,11.719c1.299-1.968,2.565-3.957,3.758-5.988
		c3.285-5.632,5.99-11.586,8.157-17.68C579.043,581.108,579.333,580.188,579.61,579.264z M514.044,763.67
		c3.627-7.6,5.877-15.806,2.273-28.284c6.545,9.65,8.182,18.586,2.385,31.001c-5.701,12.21,4.492,25.566,4.492,25.566
		C508.886,782.803,510.55,770.991,514.044,763.67z M411.973,630.154c6.821,1.747,14.142,14.641,13.643,23.126
		c-0.406,6.909,1.83,16.887,9.65,25.539c0,0-15.639-8.319-15.306-23.126C420.292,640.885,417.547,635.644,411.973,630.154z
		 M578.015,344.572c6.821,1.248,11.979-3.827,17.553-3.827s11.979,0.915,15.972,7.304
		C601.446,357.312,584.587,353.324,578.015,344.572z M519.479,344.35c10.612-3.896,21.684,1.054,21.684,1.054
		c-18.8-3.577-23.708,8.402-41.094,7.82c-17.386,0.582-22.294-11.397-41.094-7.82c0,0,11.073-4.95,21.684-1.054
		c11.787,4.327,12.312,4.603,19.41,4.64C507.167,348.953,507.691,348.677,519.479,344.35z M388.597,348.049
		c3.993-6.389,10.398-7.304,15.972-7.304s10.731,5.074,17.553,3.827C415.55,353.324,398.691,357.312,388.597,348.049z
		 M485.317,333.591c-2.875-1.608-0.444-4.659,2.44-8.43c2.884-3.771,4.326-8.319,5.768-14.844
		C492.637,331.965,488.589,335.421,485.317,333.591z M491.916,290.999c-2.303,0.994-2.745-5.49-3.743-6.738
		C490.419,285.092,494.356,289.945,491.916,290.999z M399.356,653.696c-3.106-9.65,1.664-19.965-7.21-31.944
		c-8.873-11.979-7.542-18.523-6.655-28.949c-0.222,10.315,4.88,16.194,9.961,21.629c5.081,5.435,6.676,10.87,6.344,24.291
		c0,0,3.106-10.981,3.106-17.192c1.331,4.659,2.537,10.617,0.887,16.527C404.458,642.826,398.403,649.157,399.356,653.696z
		 M418.961,781.971c8.402,9.982,13.061,10.731,17.636,20.88c4.575,10.149,4.492,19.965,7.154,25.871
		C435.016,817.992,429.026,799.025,418.961,781.971z M443.279,742.541c-2.939,1.497-3.328-6.988-7.099-11.092
		c-3.664-3.988-1.997-15.307-0.111-17.192c-0.111,5.102-1.996,9.982,2.551,15.195C443.168,734.665,444.762,741.785,443.279,742.541z
		 M450.905,849.104c-2.163-3.993-2.08-7.57-0.998-11.896c0.333,3.327,1.581,8.818,7.237,12.894
		c5.657,4.076,6.405,13.643,6.405,13.643C459.39,855.426,453.068,853.097,450.905,849.104z M464.871,831.052
		c1.479-11.868,1.59-15.639-1.072-19.632c-2.662-3.993-1.22-9.65,1.886-12.201c-1.664,2.995-0.776,7.099,2.662,10.981
		C471.785,814.082,464.871,831.052,464.871,831.052z M469.456,745.979c1.331-7.099,0.514-9.018-5.698-16.146
		c-6.613-7.59-7.39-19.569-7.39-19.569c3.438,6.877,11.314,15.75,11.314,15.75c-2.995-8.319-0.333-23.182,3.216-28.506
		c-1.331,5.99-0.665,18.967,2.108,25.955C475.778,730.451,472.45,743.095,469.456,745.979z M494.412,841.034
		c3.217-8.541,2.137-22.073-6.917-29.282c-9.055-7.21-4.285-26.065,1.593-32.388c-2.884,13.31-2.107,19.743,4.437,28.617
		C500.069,816.855,499.958,837.929,494.412,841.034z M516.263,841.034c-6.433,7.875-7.432,19.521-7.432,19.521
		s-3.328-12.201,4.88-22.627c8.208-10.426,10.759-19.965,10.759-19.965C524.47,826.615,522.696,833.159,516.263,841.034z
		 M528.907,667.561c0,0-3.106,7.431-0.555,15.639c-7.431-10.759-7.764-20.076,2.884-32.388
		C528.463,653.918,526.356,664.677,528.907,667.561z M546.764,837.208c0.444,7.709,0.444,15.362-7.542,21.684
		c0,0,3.938-8.79,3.328-15.417c-0.448-4.871-1.997-11.424,7.542-19.965C550.092,823.51,546.321,829.499,546.764,837.208z
		 M550.092,799.219c2.662,9.872-12.866,22.072-12.866,22.072c3.771-6.766,8.754-13.498,7.431-22.849
		c-1.553-10.981,3.549-18.634,9.872-25.067C550.092,782.914,547.43,789.347,550.092,799.219z M548.539,747.421
		c1.664-0.887,5.768-8.208,4.659-16.97c-1.109-8.762-0.428-14.68,7.336-22.333c-4.841,8.413-4.344,21.665-3.013,25.325
		c0,0,5.548-11.866,12.425-11.089c-2.884,0.444-7.099,6.1-8.984,11.314C559.076,738.88,556.081,746.534,548.539,747.421z
		 M556.318,828.723c2.662-5.906,2.579-15.722,7.154-25.871c4.575-10.149,9.234-10.898,17.636-20.88
		C571.042,799.025,565.052,817.992,556.318,828.723z M632.268,816.993c-3.827-11.397-1.747-19.882,10.149-27.535
		C637.259,796.446,632.517,807.843,632.268,816.993z M780.342,509.948c0,0-1.165,17.885,3.244,24.873c0,0-3.993-5.49-6.627-6.128
		c0,0,5.102,9.65,4.659,18.079c-0.444,8.43,2.44,15.861,7.432,24.069c-8.984-6.766-19.513-21.301-18.634-30.502
		c-3.106,18.301,2.551,33.386,6.433,39.375c3.882,5.99,4.88,20.076-0.998,32.166c1.997-10.87-6.655-23.071-6.766-34.717
		c0,0-2.662,16.638-0.333,27.84c2.329,11.203,1.22,21.407-1.664,31.279c0,0-2.329-16.194-4.697-19.965
		c0.294,4.437-3.511,32.942-11.608,38.488c3.882-8.984,2.329-51.687-2.218-60.228c-19.078,44.81-12.645,90.286-12.645,90.286
		s-10.981-15.528-9.872-24.18c-3.771,5.657-13.643,41.705-12.534,51.687c-3.439-6.433-8.097-32.72-6.877-38.932
		c-3.993,3.106-4.88,13.865-4.659,27.507c0.222,13.643-15.639,37.157-16.083,45.143c-5.203-16.56,11.535-34.051,4.659-52.242
		c0.111,9.761-9.788,27.48-14.863,33.469c-5.074,5.99-10.648,32.415-12.977,47.611c-1.22-6.1-1.22-30.058,0.832-40.54
		c-2.662,8.818-18.135,21.296-20.797,44.256c0,0-3.993-7.154-2.496-18.301c-2.995,11.147-12.312,12.811-14.641,29.282
		c0,0-3.66-8.984-0.666-19.466c-4.326,3.993-16.471,22.627-19.965,50.245c0,0-4.991-19.466,3.328-36.935
		c0,0-12.145,13.144-16.305,25.123c0,0-1.83-9.816-0.166-15.307c-10.149,8.319-12.977,33.441-19.632,40.263
		c5.324-9.151,1.83-20.298,6.322-28.117c4.492-7.82,1.996-10.149,6.322-15.306s7.32-13.643,7.487-23.459
		c0,0,6.821,11.313,6.322,20.131c3.66-15.14,12.644-27.286,14.974-40.928c0,0,3.66,20.464-0.333,27.618
		c11.646-6.988,20.63-32.443,21.296-43.59c3.66,8.485,2.662,20.63-2.329,31.611c8.818-5.99,16.97-33.275,17.303-40.928
		c2.828,5.99,1.165,22.461-3.494,30.613c9.65-7.32,21.795-41.76,20.131-50.744c2.828,5.823,7.154,15.639,3.993,24.956
		c13.144-17.636,9.982-52.741,2.496-67.881c0,0,12.312,11.48,12.145,21.462c0,0,11.48-33.109,17.469-37.934
		c0.166,5.99,0.499,21.296-12.312,30.779c23.459-5.158,19.632-27.951,24.956-37.102c0,0,4.326,19.632,0.499,30.28
		c6.988-8.984,9.816-20.63,6.655-34.273c-3.161-13.643-4.991-29.448-1.997-37.434c-0.166,4.492,7.32,12.312,9.151,22.294
		c13.976-23.293,18.8-50.744,11.314-65.219c8.984,6.489,18.301,25.622,18.135,45.42c0,0,7.653-22.128-0.333-41.927
		c-7.986-19.799-19.466-27.951-18.301-39.431c2.329,11.313,20.162,16.324,21.344,32.443c5.276-16.638-12.693-29.116-13.857-47.583
		c5.99,3.161,10.981,14.142,12.312,23.293c8.485-28.949-20.63-51.909-22.96-61.392c0,0,8.651,2.995,11.979,7.154
		c-1.497-11.979-24.124-19.133-31.057-49.691c1.553,41.039,19.188,58.786,27.286,66.217c-10.981-4.215-21.629-16.97-25.289-27.064
		c0.444,7.431,1.885,14.974,9.317,22.516c7.431,7.542,14.502,23.126,15.972,31.722c0,0-9.428-14.863-17.636-22.96
		c0,0,5.998,16.426,7.32,28.062c-1.553-4.797-11.203-16.416-15.196-30.169c0,0,0.665,18.856,4.769,26.731
		c-6.322-5.657-8.097-21.518-12.09-28.062c3.161,9.983-2.496,35.272,9.65,55.569c7.707,12.879,15.307,31.112,10.149,47.583
		c0.665-6.655-11.147-20.131-10.482-29.781c-7.487,12.145-6.655,35.438-10.981,46.419c1.331-13.144-6.156-26.454-2.995-49.247
		c0,0-4.492,17.469-8.485,27.785c-3.993,10.315-3.161,23.625-9.151,35.937c0.333-3.66-1.331-14.974-0.666-23.792
		c0.666-8.818,5.49-8.485,4.326-21.961c-1.165-13.476-0.555-35.715-0.555-35.715s6.211,9.65,7.542,20.076
		c0,0,1.775-14.752-0.887-23.404c-2.662-8.652-10.759-17.081-11.757-24.956c1.664,3.217,10.537,12.423,16.859,10.315
		c-11.203-3.993-15.418-31.057-19.965-42.481c-4.548-11.424-12.977-15.861-16.194-24.18c4.548,2.995,18.634,11.092,26.454,23.391
		c-0.499-11.271-13.144-23.501-23.126-29.325c-9.982-5.823-24.291-20.63-29.615-28.45c7.653,26.953,23.459,40.429,25.788,50.911
		c0,0-9.317-3.827-16.138-15.14c0,0,2.995,13.144,12.645,23.126c9.65,9.982,13.088,23.847,13.088,23.847s-6.1-2.44-13.31-11.979
		c0,0,3.66,11.203,11.314,20.409c7.653,9.206,9.761,21.629,9.317,31.611c-0.776-4.104-20.63-36.492-20.63-36.492
		s6.988,18.412,13.088,35.05c6.1,16.637,7.653,35.161,5.213,42.814c-0.111-8.873-13.532-29.504-14.586-42.703
		c-3.161,12.811,3.494,25.289,4.659,35.438c1.165,10.149-1.387,32.776-1.387,32.776s-6.571-9.11-6.1-13.421
		c-0.277,1.671-0.413,3.312-0.478,4.936c0.084,0.096,0.168,0.193,0.252,0.287c0.831,0.923,1.233,2.147,1.128,3.366
		c0.256,0.324,0.466,0.682,0.624,1.066c0.103,0.25,1.008,2.548,1.13,6.325c0.059,1.82-0.505,3.522-1.306,5.006
		c1.832,8.156,4.389,16.323,4.752,25.377c0,0-8.54-11.203-8.873-17.442c-2.44,16.72,6.211,30.641,1.664,46.724
		c-1.418-13.304-10.874-32.067-17.2-38.281c2.657-0.733,5.387-2.448,7.315-3.863c1.35-0.991,2.524-2.095,3.491-3.284
		c0,0,0,0,0.001,0c2.673-3.289,3.285-5.8,3.407-7.043c1.179-1.125,3.877-4.044,3.779-7.097c-0.107-3.301-0.875-5.21-0.907-5.289
		c-0.065-0.158-0.156-0.303-0.27-0.43c0.001,0-0.797-0.951-0.599-1.824c0.107-0.47-0.021-0.964-0.344-1.323
		c-0.79-0.879-2.038-2.394-2.338-3.009c-0.132-0.284-0.031-1.36,0.2-2.128c0.234-0.78-0.203-1.602-0.981-1.845l-2.691-0.839
		c-11.313-17.947-35.818-41.436-57.503-58.049l-0.217-0.6c-0.049,0.103-0.109,0.205-0.161,0.308
		c-1.932-1.475-3.839-2.894-5.713-4.249c-0.443-1.055-1.033-2.048-1.748-2.98c0.093,0.084,0.192,0.155,0.284,0.239
		c-11.813-19.91-43.091-19.022-60.061-21.019c-14.469-1.702-27.487-8.283-31.01-13.382c-0.23-0.332-0.582-0.499-0.934-0.499v0
		c0,0,0,0,0,0s0,0,0,0v0c-0.352,0-0.704,0.166-0.934,0.499c-3.523,5.1-16.541,11.68-31.01,13.382
		c-16.97,1.997-48.249,1.109-60.061,21.019c14.225-12.977,33.706-13.887,48.5-13.887c2.147,0,4.098-0.07,5.912-0.19
		c0,0-0.003,0.001-0.003,0.001s42.18-1.114,68.473,6.402c14.926,4.267,21.652,13.033,24.698,18.294
		c0.527,1.034,1.043,2.004,1.552,2.927c0.03,0.061,0.069,0.138,0.097,0.196c0.032,0.066,0.087,0.144,0.132,0.217
		c0.613,1.098,1.22,2.147,1.816,3.099c0.004,0.007,0.008,0.013,0.012,0.02c0.777,1.242,1.568,2.53,2.363,3.832
		c1.235,2.023,2.479,4.085,3.7,6.11c2.33,3.868,4.74,7.868,7.065,11.538c1.941,3.064,3.917,6.053,5.91,9.002
		c-0.536,1.293-1.104,2.572-1.719,3.83c-2.82,5.638-6.096,11.002-9.885,15.991c-2.987,3.905-6.196,7.621-9.587,11.155
		c1.132-1.792,2.235-3.601,3.275-5.444c2.848-5.172,5.25-10.572,7.138-16.115c1.824-5.579,2.908-11.345,3.36-17.095
		c-1.225,5.656-3.043,11.097-5.52,16.224c-2.545,5.094-5.528,9.92-8.891,14.459c-2.844,3.753-5.91,7.317-9.143,10.714
		c0.992-1.661,1.957-3.337,2.857-5.048c2.44-4.69,4.512-9.556,6.126-14.545c1.524-5.03,2.475-10.189,2.807-15.34
		c-1.104,5.057-2.791,9.898-4.974,14.485c-2.276,4.551-4.941,8.859-7.912,12.934c-2.679,3.634-5.615,7.061-8.696,10.343
		c0.86-1.554,1.694-3.123,2.464-4.724c2.028-4.206,3.78-8.537,5.09-12.986c1.252-4.471,2.044-9.037,2.262-13.587
		c-0.991,4.46-2.52,8.714-4.438,12.756c-1.979,4.023-4.337,7.818-6.917,11.434c-2.519,3.538-5.326,6.861-8.255,10.059
		c0.736-1.486,1.447-2.983,2.108-4.502c1.605-3.725,3.035-7.523,4.024-11.437c0.988-3.91,1.604-7.891,1.713-11.845
		c-0.882,3.866-2.237,7.545-3.902,11.048c-1.666,3.506-3.721,6.799-5.906,9.969c-2.2,3.166-4.597,6.182-7.132,9.088
		c-0.191,0.217-0.391,0.427-0.583,0.643c0.593-1.412,1.169-2.832,1.698-4.268c2.397-6.445,4.038-13.277,4.059-20.016
		c-1.579,6.556-4.6,12.473-8.224,17.928c-1.807,2.733-3.759,5.361-5.811,7.918c-0.378,0.472-0.776,0.934-1.16,1.401
		c0.414-1.329,0.803-2.665,1.164-4.009c1.44-5.509,2.465-11.191,2.266-16.773c-1.354,5.406-3.805,10.316-6.563,14.975
		c-0.785,1.305-1.609,2.587-2.453,3.853l-2.963-22.433l-2.963,22.432c-0.844-1.266-1.668-2.548-2.453-3.853
		c-2.758-4.659-5.209-9.568-6.563-14.975c-0.199,5.582,0.826,11.264,2.266,16.773c0.36,1.344,0.75,2.68,1.164,4.009
		c-0.384-0.467-0.782-0.929-1.16-1.401c-2.052-2.557-4.004-5.185-5.811-7.918c-3.624-5.455-6.645-11.372-8.224-17.928
		c0.021,6.739,1.662,13.571,4.059,20.016c0.529,1.436,1.104,2.856,1.698,4.268c-0.191-0.216-0.392-0.427-0.582-0.643
		c-2.535-2.906-4.932-5.923-7.132-9.088c-2.184-3.17-4.24-6.464-5.906-9.969c-1.665-3.503-3.02-7.182-3.902-11.048
		c0.109,3.954,0.725,7.935,1.713,11.845c0.988,3.915,2.419,7.712,4.023,11.437c0.661,1.519,1.372,3.017,2.108,4.502
		c-2.929-3.198-5.736-6.521-8.255-10.059c-2.58-3.617-4.938-7.412-6.917-11.434c-1.918-4.043-3.447-8.297-4.438-12.756
		c0.219,4.551,1.01,9.117,2.262,13.587c1.31,4.448,3.062,8.78,5.09,12.986c0.77,1.601,1.603,3.17,2.464,4.724
		c-3.08-3.282-6.017-6.708-8.696-10.343c-2.971-4.076-5.635-8.383-7.912-12.934c-2.183-4.587-3.869-9.428-4.974-14.485
		c0.332,5.15,1.282,10.31,2.807,15.34c1.614,4.989,3.686,9.855,6.126,14.545c0.901,1.711,1.865,3.387,2.857,5.048
		c-3.234-3.397-6.299-6.961-9.143-10.714c-3.363-4.539-6.346-9.365-8.891-14.459c-2.477-5.127-4.296-10.568-5.521-16.224
		c0.452,5.75,1.537,11.516,3.36,17.095c1.888,5.543,4.29,10.943,7.138,16.115c1.04,1.843,2.143,3.652,3.275,5.444
		c-3.391-3.533-6.6-7.249-9.587-11.154c-3.789-4.988-7.065-10.353-9.885-15.991c-2.772-5.67-4.72-11.717-6.066-17.974
		c0.573,6.352,1.789,12.728,3.911,18.858c2.167,6.094,4.872,12.048,8.157,17.68c1.193,2.03,2.458,4.019,3.758,5.988
		c-3.59-3.701-6.983-7.604-10.115-11.719c-4.166-5.463-7.881-11.305-10.887-17.534c-3.031-6.218-5.281-12.849-6.588-19.738
		c0.535,6.985,2.053,13.949,4.437,20.632c1.347,3.824,2.976,7.552,4.789,11.196c4.718,8.129,10.306,14.909,16.835,20.444
		c16.216,13.75,38.549,20.433,68.273,20.434c7.078,0,13.966-0.419,20.474-1.246c1.06-0.135,2.114-0.274,3.147-0.43
		c2.679-0.405,5.287-0.883,7.752-1.421c0.215-0.047,0.438-0.092,0.66-0.136l0.234-0.047c2.824-0.64,5.657-1.407,8.412-2.279
		c0.152-0.048,0.308-0.094,0.465-0.139c3.704-1.193,7.341-2.634,10.809-4.281c0.199-0.094,0.402-0.186,0.606-0.277l0.137-0.061
		c6.606-3.215,12.646-7.325,17.904-12.191c1.073-0.993,2-1.895,2.836-2.757c4.339-4.48,8.271-9.751,11.697-15.659
		c0.13-0.261,0.27-0.517,0.398-0.779c1.44,1.969,2.892,3.905,4.354,5.811c-3.458,5.696-7.375,10.824-11.67,15.258
		c-0.915,0.946-1.926,1.93-3.094,3.009c-5.74,5.312-12.321,9.793-19.554,13.313l-0.756,0.343c-3.756,1.786-7.703,3.347-11.823,4.666
		l-0.298,0.088c-2.941,0.931-5.954,1.747-8.953,2.426l-0.942,0.194c-2.61,0.569-5.36,1.074-8.176,1.5
		c-1.085,0.164-2.191,0.311-3.304,0.451c-6.785,0.863-13.955,1.3-21.313,1.3c-74.223,0-94.499-42.76-103.294-74.923l-0.313-1.146
		l-0.024-0.021c-0.41-1.658-0.804-3.329-1.17-5.016c-0.855-3.934-1.629-7.907-2.345-11.897c-0.614,4-1.169,8.014-1.64,12.061
		c-8.656-9.12-8.984-17.412,0.767-44.627c0.793-1.968,1.665-3.873,2.707-5.665c1.228-2.158,2.803-4.136,4.568-6.161
		c1.762-2.019,3.618-4.081,5.315-6.23c1.708-2.146,3.292-4.367,4.81-6.611c-2.022,1.81-4.078,3.559-6.209,5.187
		c-2.129,1.638-4.331,3.118-6.584,4.683c-1.625,1.13-3.294,2.371-4.87,3.774c-0.134-1.353-0.268-2.696-0.4-4.017
		c-2.38-23.697-4.106-40.967,8.183-58.108c0.627-0.81,1.29-1.617,1.981-2.408c1.646-1.89,3.477-3.697,5.356-5.468
		c3.775-3.535,7.822-6.874,12.026-10.027c-4.867,2-9.663,4.229-14.359,6.786c-1.118,0.614-2.233,1.243-3.341,1.9
		c1.204-15.825,12.82-32.789,30.158-43.913c1.904,21.422,17.26,26.776,39.061,35.116c14.641,5.601,20.714,16.499,29.614,15.972
		c0,0,0,0,0,0s0,0,0,0c8.901,0.527,14.974-10.371,29.614-15.972c21.802-8.341,37.157-13.694,39.062-35.116
		c17.339,11.125,28.955,28.088,30.159,43.913c-1.108-0.657-2.222-1.286-3.341-1.9c-4.695-2.557-9.491-4.786-14.359-6.786
		c4.203,3.152,8.251,6.491,12.026,10.027c1.879,1.77,3.71,3.577,5.356,5.468c0.696,0.797,1.364,1.609,1.995,2.425
		c12.274,17.136,10.549,34.403,8.169,58.095c-0.133,1.32-0.266,2.661-0.4,4.014c-1.576-1.404-3.245-2.645-4.87-3.775
		c-2.253-1.565-4.455-3.044-6.584-4.683c-2.131-1.628-4.186-3.376-6.209-5.187c1.518,2.244,3.101,4.465,4.81,6.611
		c1.698,2.149,3.554,4.211,5.315,6.23c1.765,2.026,3.34,4.004,4.568,6.161c1.042,1.79,1.913,3.694,2.706,5.661
		c6.408,17.881,8.461,27.597,6.66,34.738c2.123,1.844,4.266,3.751,6.414,5.707c4.175-9.811,2.1-21.778-5.567-43.177
		c0.023-0.263,0.048-0.513,0.072-0.775c0.458-0.983,1.063-1.763,1.519-3.022c0,0,0.444,2.163,7.099,7.451
		c0,0-5.158-13.607-5.002-25.586c2.319,0.665,8.163,7.986,11.158,19.133c3.024-14.803-4.459-31.71-12.105-38.539
		c-0.549-11.868-3.417-22.856-11.373-33.879c0.666-16.721-9.02-34.952-24.919-48.398c13.652,7.953,28.244,20.508,32.66,20.159
		c-12.145-8.152-11.757-15.972-26.343-23.126c6.544,0.055,23.126,1.83,39.431,20.686c-13.365-22.682-16.741-23.459-34.186-26.454
		c-17.445-2.995-28.648-16.526-28.648-16.526c5.768,4.659,24.734,12.977,36.492,12.866c-12.866-3.328-23.736-13.532-23.736-13.532
		c16.97,7.875,45.032,14.752,58.12,22.516c13.088,7.764,19.078,18.856,19.078,18.856c-4.88-13.421-12.423-22.183-24.291-26.731
		c-11.868-4.548-23.182-12.312-23.182-12.312c8.541,1.331,24.513,5.99,26.842,7.542c-9.206-6.877-23.514-12.201-23.514-12.201
		c7.986-0.887,27.174,1.442,34.606,6.766c-4.863-4.773-16.234-9.985-21.764-11.954c0.432-0.003,0.826-0.082,1.172-0.221
		c7.461,1.72,18.676,6.688,27.579,5.853c-9.421-2.251-20.095-8.261-27.877-11.107c-0.816-0.484-1.905-0.863-3.327-1.046
		c-0.026-0.006-0.053-0.016-0.079-0.022c0.253-0.022,5.857-0.487,11.897,0.019c2.931,0.402,5.505,0.859,7.112,1.164
		c0.072,0.02,0.148,0.035,0.219,0.055c-0.003-0.005-0.009-0.01-0.012-0.016c0.966,0.185,1.531,0.305,1.531,0.305
		c-0.776-0.372-1.56-0.728-2.349-1.076c-3.943-2.749-19.676-7.54-30.825-8.082c-0.094-0.006-0.193-0.013-0.284-0.017
		c0.404-0.23,0.958-0.438,1.638-0.618c7.566-1.357,16.818-0.492,24.389,1.401c0.072,0.019,0.144,0.039,0.216,0.058
		c0.28,0.071,0.545,0.149,0.82,0.223c3.824,1.088,7.567,2.58,10.872,4.563c-0.036-0.039-0.074-0.075-0.11-0.114
		c0.055,0.038,0.125,0.076,0.178,0.114c-0.932-1.243-2.433-2.632-4.394-4.031c-8.864-7.074-19.783-9.295-29.347-9.182
		c-3.914-0.05-7.948,0.365-11.986,1.383c-0.264,0.06-0.529,0.119-0.786,0.181c3.365-2.164,6.855-3.665,10.409-4.626
		c11.509-2.617,24.946,0.204,36.267,4.853c6.931,3.108,13.253,6.957,18.403,10.534c-0.027-0.04-0.056-0.078-0.083-0.119
		c0.049,0.039,0.103,0.079,0.152,0.119c-1.438-2.736-4.036-5.611-7.363-8.383c-7.7-6.963-17.362-11.294-25.972-13.519
		c-5.467-1.567-10.801-2.295-15.338-1.779c-0.071,0.005-0.147,0.007-0.216,0.013c0.817-0.478,1.632-0.876,2.445-1.24
		c3.011-1.093,5.957-1.819,8.931-2.09c5.513-0.228,10.575,1.291,14.597,2.597c-0.048-0.03-0.094-0.057-0.142-0.087
		c0.071,0.031,0.139,0.055,0.21,0.087c-7.932-5.191-13.699-6.623-18.355-6.509c-10.639-0.387-19.081,5.92-29.27,12.605
		c-4.314,2.366-8.851,4.851-13.324,7.214c-2.031,1.073-3.785,2.057-5.377,2.954c-7.236,2.86-15.628,4.811-25.831,4.811
		c-24.152,0-37.129-21.74-39.015-37.268c1.553,10.204,12.811,21.629,12.811,21.629s-1.83-7.542-0.887-10.26
		c0.222,2.496,2.995,9.816,8.624,15.001c0,0-0.333-5.823,1.997-9.067c-0.499,2.246,1.165,9.899,6.073,13.06
		c-1.081-3.411,0.416-7.82,4.659-9.567c-2.828,4.076-1.581,9.567,3.244,13.31c-1.348-3.752-0.166-7.57,3.078-10.398
		c-0.416,1.996-1.165,7.071,2.745,10.01c0,0-0.832-2.856,2.163-5.435c2.995-2.579,3.827-5.823,3.744-9.317
		c1.747,2.579,2.828,8.568-0.166,12.894c0,0,8.652-2.579,12.145-8.984c-0.915,5.158-5.49,9.899-5.49,9.899
		s11.757-6.211,18.967-16.527c0,0-0.721,5.934-4.215,9.816c11.979-5.99,10.093-12.312,17.414-17.58
		c-1.608,1.442-3.383,6.1-3.549,9.317c10.703-12.09,29.448-13.975,40.096-12.312c-13.56-5.74-20.298-3.619-31.279,0.541
		c0,0,6.156-6.364,16.638-8.139c-7.875-2.107-23.182,2.108-29.282,10.537c0,0,3.009-10.931,7.154-13.532
		c-8.43,3.605-16.637,18.523-23.403,21.629c4.728-7.82,4.88-14.752,4.728-19.577c0,0-8.943,13.754-13.768,14.918
		c1.608-2.995-0.056-7.32-1.276-16.083c-1.165,5.38-4.437,13.421-8.208,18.911c0.776-1.775-2.052-9.095-0.166-14.53
		c-2.828,3.106-6.988,9.594-7.598,15.528c0,0-2.385-10.814,1.386-17.469c0,0-7.376,5.823-8.541,11.443
		c-0.887-6.414,0.887-11.832,4.659-17.156c-3.549,1.442-12.09,11.092-13.809,18.079c-0.721-3.882-0.499-9.927,4.27-16.527
		c0,0-11.092,5.38-12.7,11.258c-0.111-14.419,5.269-20.131,9.511-21.546c0,0-3.549,4.658-2.745,9.234
		c5.277-8.53,18.398-14.654,19.91-16.97c-0.998,5.879-9.982,11.535-11.036,14.086c13.809-4.548,21.684-12.256,23.57-17.469
		c0.277,6.1-2.163,10.093-5.269,15.196c0,0,8.208-6.211,10.814-13.587c2.607-7.376,9.206-12.949,14.142-14.308
		c-4.048,2.662-10.703,11.424-10.87,15.14c0,0,6.988-6.489,13.754-8.041c-2.579,1.581-12.811,10.315-13.643,18.301
		c2.912-5.823,20.215-16.97,29.033-18.052c-3.244,2.163-13.56,10.897-13.476,14.558c11.979-10.814,24.041-11.064,30.696-8.319
		c-6.655-0.249-13.643,1.581-17.386,4.742c0,0,13.726-2.496,21.962,0.333c0,0-7.82,0.998-11.563,4.575
		c16.388-2.246,33.774,5.074,47.334,18.717c0,0-3.494-12.478-19.799-20.547c0,0,7.154-0.665,14.391,3.66
		c-2.496-4.825-20.131-17.553-40.013-17.553c0,0,4.243-4.076,12.977-4.159c-8.485-4.159-25.871-4.908-38.433-0.832
		c0,0,5.324-6.738,10.731-7.237c-18.301-4.409-35.688,9.067-40.096,12.728c3.494-8.818,12.894-10.898,14.586-18.773
		c-5.324,6.433-19.078,8.43-29.06,19.965c0.444-1.775,3.77-8.947,6.877-12.645c-5.959,1.583-11.96,11-19.078,16.638
		c0,0,4.659-6.544,3.993-12.201c-3.328,5.99-12.446,14.77-12.534,14.863c0,0,0.998-5.99,3.328-11.092c0,0-6.766,3.66-9.206,9.539
		c0,0-2.884-6.766-1.775-13.643c-2.473,6.235-14.08,17.854-14.794,18.566v0.068c0,0-0.028-0.028-0.034-0.034
		c-0.006,0.006-0.034,0.034-0.034,0.034v-0.068c-0.714-0.711-12.322-12.331-14.794-18.566c1.109,6.877-1.775,13.643-1.775,13.643
		c-2.44-5.879-9.206-9.539-9.206-9.539c2.329,5.102,3.328,11.092,3.328,11.092c-0.087-0.093-9.206-8.873-12.534-14.863
		c-0.666,5.657,3.993,12.201,3.993,12.201c-7.118-5.638-13.119-15.054-19.078-16.638c3.106,3.697,6.433,10.87,6.877,12.645
		c-9.741-11.257-23.051-13.441-28.637-19.518c13.267-1.909,27.206-3.454,41.456-4.501c4.041,4.502,7.348,9.938,9.032,16.254
		c1.775-4.215,0.665-12.201,0.665-12.201c2.662,1.109,7.099,6.1,7.099,6.1c0.321-4.259,0.221-7.362-0.863-11.106
		c0.883-0.04,1.765-0.079,2.649-0.115c3.37,4.693,6.833,12.01,6.533,18.32c2.231-4.767,4.826-11.833,5.255-13.011v-0.188
		c0,0,0.012,0.033,0.034,0.094c0.022-0.061,0.034-0.094,0.034-0.094v0.188c0.429,1.178,3.024,8.244,5.255,13.011
		c-0.31-6.513,3.389-14.1,6.858-18.764c0.827,0.004,1.654,0.006,2.481,0.014c-1.24,3.996-1.357,7.186-1.02,11.652
		c0,0,4.437-4.991,7.099-6.1c0,0-1.109,7.986,0.666,12.201c1.816-6.811,5.519-12.6,9.995-17.297
		c25.904,1.175,51.126,4.595,73.54,11.063c27.456,7.922,45.49,15.482,59.478,21.906c3.875,3.998,10.179,8.811,19.813,13.055
		c15.861,6.988,15.75,13.449,15.251,18.19c3.743-7.237,1.996-12.062-1.83-16.721c8.735,2.163,17.22,13.144,19.882,18.052
		c0.499-6.489-7.154-18.301-14.974-23.376c-7.82-5.074-14.807-12.977-15.722-15.722c4.409,0.665,18.135,14.558,22.211,15.306
		c-3.993-4.076-11.813-14.891-12.312-18.468c0,0,18.384,12.977,22.045,19.383c0,0-1.082-9.733-7.653-15.639
		c4.076,0.749,16.554,6.655,20.215,10.066c-2.329-5.407-8.319-12.229-13.56-14.059c27.036,2.496,28.949,24.54,33.774,31.778
		c-1.331-5.906,0-12.811-3.328-23.043c-3.327-10.232-13.476-13.144-19.965-19.299c0,0,6.489-0.166,9.067,0.749
		c-9.4-10.731-25.622-5.49-29.864-7.32c3.411,0.083,8.901-2.745,9.733-4.492c-10.897,1.165-10.731-1.747-23.126,0.083
		c-3.626,0.535-7.377,1.638-11.02,2.888c1.193-3.138,2.09-6.355,2.715-9.628c6.667-2.841,13.837-3.498,18.703-1.412
		c6.405,2.745,22.627,6.156,28.284,12.478c5.657,6.322,12.478,9.65,17.969,17.303c5.49,7.653,0.166,11.646,4.159,20.797
		c3.993,9.151,1.497,14.475-4.159,24.457c-5.657,9.983-2.163,19.632-7.487,25.234c0,0,0.111-15.639-2.107-23.293
		c0,0-1.331,14.197-4.88,20.52c0,0-6.535-15.86-4.88-21.074c0,0-5.324,12.645-1.331,22.294c-2.884-4.104-12.866-16.97-17.747-17.857
		c3.771,1.775,11.092,17.525,11.092,17.525s-7.431-4.658-15.417-10.537c0,0,8.651,13.199,15.528,20.298
		c6.877,7.099,11.646,13.31,18.079,27.396c-7.542-2.329-19.911-11.743-22.405-17.303c1.22,4.769,11.757,21.518,17.303,26.731
		c5.546,5.213,11.203,16.194,21.074,26.287c-3.438-2.884-16.226-10.142-18.079-13.31c2.329,5.102,15.417,20.963,19.189,24.623
		c-9.642-4.762-20.631-26.398-36.492-25.843c0,0,9.539,1.109,14.53,12.533c4.991,11.424,15.445,17.248,24.929,24.485
		c9.483,7.237,11.813,11.979,15.806,17.053c-3.827-1.248-8.485-5.906-11.813-5.99c0.749,1.248,16.055,17.386,20.131,26.204
		c-5.324-6.406-24.208-11.314-28.533-23.792c0,0,1.414,14.475,10.814,20.464c9.4,5.99,18.19,21.601,18.634,28.034
		c0,0-13.227-13.393-17.303-15.057c0,0,8.984,17.22,14.225,24.707c5.241,7.487,3.078,14.724,7.986,21.712
		C791.572,525.172,781.173,515.106,780.342,509.948z M517.552,303.061c-2.911-4.908-3.827-11.48,3.411-15.972
		C518.135,290.25,516.887,298.735,517.552,303.061z"/>
	<path style="fill:#3C3C3C;" d="M638.424,533.352c0,0-2.218-10.981-5.324-15.085c1.259,12.102-1.284,29.612-0.919,43.114
		c7.224,7.133,14.011,14.439,19.477,21.165c-3.426-21.445-3.061-39.252-3.473-50.304c0,0,8.319,16.748,9.206,32.166
		c7.875-14.752-5.213-57.122-15.972-73.296C641.418,491.112,643.304,524.035,638.424,533.352z"/>
	<path style="fill:#3C3C3C;" d="M306.574,351.892c-0.166,10.814-10.149,22.96-13.809,28.117c-3.66,5.158-5.324,20.131-5.324,20.131
		c8.984-16.471,15.38-19.54,23.209-23.708c11.563-6.156,17.386-17.851,17.553-28.644c-3.411,11.667-17.137,19.993-17.137,19.993
		c6.821-12.478,2.745-19.042,9.151-33.767c6.405-14.724,16.471-22.884,16.471-22.884c-28.45,10.981-46.252,63.007-52.075,66.692
		C293.431,375.185,305.576,356.218,306.574,351.892z"/>
	<path style="fill:#3C3C3C;" d="M356.071,307.054c-13.393,6.073-20.547,13.56-27.868,31.029
		C332.529,331.012,353.825,307.719,356.071,307.054z"/>
	<path style="fill:#3C3C3C;" d="M246.929,462.115c7.736-7.986,18.052-26.121,18.218-32.859c0,0-2.995,6.738-10.814,15.806
		c-7.82,9.067-18.052,26.703-13.227,32.942C241.106,478.004,239.193,470.101,246.929,462.115z"/>
	<path style="fill:#3C3C3C;" d="M328.702,385.167c-2.218,13.421-30.391,13.643-29.06,33.053c2.44-5.99,7.764-9.095,10.648-10.315
		c-1.22,5.99-8.291,11.729-8.291,18.939c0,7.21-1.913,22.377-7.015,26.786c13.421-8.901,9.206-20.104,19.327-38.266
		C322.623,400.448,329.257,400.362,328.702,385.167z"/>
	<path style="fill:#3C3C3C;" d="M318.276,444.507c3.106-5.435,11.202-10.648,16.859-15.251c5.657-4.603,18.634-15.473,19.632-28.672
		C353.104,411.787,324.044,427.315,318.276,444.507z"/>
	<path style="fill:#3C3C3C;" d="M351.662,485.158c3.577-12.561,6.073-17.303,10.565-20.88c4.492-3.577,11.979-13.643,12.728-29.033
		c-1.165,5.657-9.483,18.634-17.053,24.54C350.331,465.693,351.662,485.158,351.662,485.158z"/>
	<path style="fill:#3C3C3C;" d="M717.525,377.822c-5.823-3.685-23.625-55.711-52.075-66.692c0,0,10.066,8.16,16.471,22.884
		s2.329,21.289,9.151,33.767c0,0-13.726-8.326-17.137-19.993c0.166,10.793,5.99,22.488,17.553,28.644
		c7.829,4.168,14.225,7.237,23.209,23.708c0,0-1.664-14.974-5.324-20.131c-3.66-5.158-13.643-17.303-13.809-28.117
		C696.561,356.218,708.707,375.185,717.525,377.822z"/>
	<path style="fill:#3C3C3C;" d="M646.067,307.054c2.246,0.665,23.542,23.958,27.868,31.029
		C666.614,320.613,659.46,313.127,646.067,307.054z"/>
	<path style="fill:#3C3C3C;" d="M736.991,429.256c0.166,6.738,10.482,24.873,18.218,32.859c7.736,7.986,5.823,15.889,5.823,15.889
		c4.825-6.239-5.407-23.875-13.227-32.942C739.985,435.995,736.991,429.256,736.991,429.256z"/>
	<path style="fill:#3C3C3C;" d="M691.847,407.905c2.884,1.22,8.208,4.326,10.648,10.315c1.331-19.41-26.842-19.632-29.06-33.053
		c-0.555,15.195,6.079,15.281,14.391,30.197c10.121,18.163,5.906,29.365,19.327,38.266c-5.102-4.409-7.015-19.577-7.015-26.786
		C700.139,419.634,693.068,413.894,691.847,407.905z"/>
	<path style="fill:#3C3C3C;" d="M647.37,400.584c0.998,13.199,13.975,24.069,19.632,28.672c5.657,4.603,13.754,9.816,16.859,15.251
		C678.094,427.315,649.034,411.787,647.37,400.584z"/>
	<path style="fill:#3C3C3C;" d="M627.183,435.246c0.749,15.39,8.236,25.455,12.728,29.033c4.492,3.577,6.988,8.319,10.565,20.88
		c0,0,1.331-19.466-6.239-25.372C636.667,453.88,628.348,440.903,627.183,435.246z"/>
	<path style="fill:#3C3C3C;" d="M595.678,516.159c3.476,5.115,6.135,11.393,4.75,17.367c1.559,1.183,3.163,2.432,4.811,3.751
		C607.888,529.755,599.853,519.162,595.678,516.159z"/>
	<path style="fill:#3C3C3C;" d="M504.505,440.847c-3.882,0.998,2.773,16.416,2.773,16.416S509.415,439.585,504.505,440.847z"/>
	<path style="fill:#3C3C3C;" d="M509.947,437.221c-3.485,1.745,3.702,12.582,6.073,14.038
		C515.458,450.469,513.947,435.219,509.947,437.221z"/>
	<path style="fill:#3C3C3C;" d="M515.389,433.596c-3.096,2.595,4.631,8.749,9.372,11.66
		C523.638,443.676,518.491,430.995,515.389,433.596z"/>
	<path style="fill:#3C3C3C;" d="M533.503,439.253c-1.684-2.371-10.385-12.377-12.672-9.282
		C518.209,433.517,526.39,434.885,533.503,439.253z"/>
	<path style="fill:#3C3C3C;" d="M542.244,433.249c-2.246-3.161-14.391-10.482-15.972-6.905
		C524.268,430.881,532.761,427.426,542.244,433.249z"/>
	<path style="fill:#3C3C3C;" d="M552.643,424.875c-4.908-0.416-14.812-3.777-15.917-1.775
		C534.11,427.842,548.705,426.012,552.643,424.875z"/>
	<path style="fill:#3C3C3C;" d="M558.092,416.751c-3.54,0.599-11.143,0.027-11.559,1.642
		C545.549,422.216,555.519,418.27,558.092,416.751z"/>
	<path style="fill:#3C3C3C;" d="M573.356,398.477c1.103,1.359,2.222,2.607,3.251,3.939c1.032,1.323,2.066,2.621,3.019,3.984
		c0.706,0.929,1.369,1.888,2.027,2.85c-0.328-0.147-0.654-0.297-0.984-0.439c-1.189-0.502-2.415-0.93-3.659-1.289
		c-1.249-0.348-2.526-0.619-3.82-0.726l3.221,2.054l3.126,2.073l3.087,2.091l3.022,2.118l5.906,4.138l-3.539-6.29
		c-0.89-1.581-1.829-3.003-2.878-4.406c-1.031-1.402-2.199-2.699-3.383-3.973C579.32,402.124,576.547,399.889,573.356,398.477z"/>
	<path style="fill:#3C3C3C;" d="M404.458,516.159c-6.322,4.548-21.518,26.509,4.991,28.838
		C395.03,536.79,398.58,524.811,404.458,516.159z"/>
	<path style="fill:#3C3C3C;" d="M495.632,440.847c-4.91-1.263-2.773,16.416-2.773,16.416S499.514,441.845,495.632,440.847z"/>
	<path style="fill:#3C3C3C;" d="M490.19,437.221c-4.001-2.003-5.511,13.248-6.073,14.038
		C486.488,449.804,493.675,438.966,490.19,437.221z"/>
	<path style="fill:#3C3C3C;" d="M484.748,433.596c-3.102-2.6-8.249,10.08-9.372,11.66
		C480.117,442.345,487.844,436.191,484.748,433.596z"/>
	<path style="fill:#3C3C3C;" d="M466.634,439.253c7.113-4.367,15.294-5.735,12.672-9.282
		C477.019,426.875,468.319,436.882,466.634,439.253z"/>
	<path style="fill:#3C3C3C;" d="M457.893,433.249c9.483-5.823,17.976-2.368,15.972-6.905
		C472.284,422.768,460.139,430.088,457.893,433.249z"/>
	<path style="fill:#3C3C3C;" d="M463.411,423.1c-1.105-2.002-11.009,1.359-15.917,1.775
		C451.432,426.012,466.026,427.842,463.411,423.1z"/>
	<path style="fill:#3C3C3C;" d="M453.604,418.392c-0.416-1.614-8.019-1.043-11.559-1.642
		C444.618,418.27,454.588,422.216,453.604,418.392z"/>
	<path style="fill:#3C3C3C;" d="M540.22,548.436c-0.578-2.527,0.816-6.267,1.862-8.576l-5.559-3.072
		C539.551,541.064,537.243,545.565,540.22,548.436z"/>
	<path style="fill:#3C3C3C;" d="M524.868,530.346c0,0,9.432,1.674,21.492,8.138c-0.025-0.073-0.05-0.146-0.074-0.22
		c-14.362-10.325-35.916-11.231-35.916-11.231c-3.452,0.562-6.844,0.849-10.302,0.882c-3.458-0.026-6.851-0.318-10.303-0.879
		c-3.448-0.528-7.019-1.286-10.679-1.761c-3.653-0.505-7.35-0.778-11.019-0.85c-3.604-0.06-7.21-0.072-10.837,0.039
		c-14.55,0.399-28.918,2.953-42.68,7.335c6.438-0.142,12.798-0.564,19.132-0.902c0.939,2.949,3.273,5.932,3.273,11.329
		c1.775-2.773,1.664-6.614,1.664-6.614c5.324,5.615,1.553,12.381,8.651,16.485c-2.329-4.88-1.553-8.43-1.22-13.421
		c7.21,3.882,13.643,10.52,14.53,16.352c2.801-6.48-3.854-13.468-2.551-21.121c1.885,6.766,3.771,15.195,15.307,18.745
		c-3.633-3.688-2.884-11.258-2.884-11.258c5.657,4.159,7.237,11.896,6.738,14.724c3.66-4.742,3.827-13.56,0.915-17.969
		c6.156,4.076,3.91,9.899,6.322,13.726c1.76,2.791,4.492,6.322,3.827,10.482c6.738-7.237-3.411-13.56,2.246-26.287
		c-0.832,5.823,9.567,20.242,9.567,20.242c-1.331-5.657,1.109-11.313,1.109-11.313c1.553,3.882,1.22,6.322,1.22,6.322
		s5.324-4.326,6.544-9.428c1.664,6.322-3.439,9.982-0.998,15.528c0.111-4.215,5.324-9.317,5.324-9.317
		c-0.665,4.548,3.328,7.764,6.988,9.539c-4.326-6.877-1.775-15.861-1.775-15.861s0.887,3.771,4.437,4.548
		c-0.998-3.882,3.438-6.988-1.109-14.53c4.769,2.218,6.988,11.092,4.88,21.961c4.769-4.769,4.991-13.31,4.991-13.31
		c2.44,4.548,0.666,11.757,0.666,11.757c4.345-5.106,4.962-9.789,3.839-15.607L524.868,530.346z"/>
	<path style="fill:#3C3C3C;" d="M423.725,408.849l3.221-2.054c-1.295,0.107-2.572,0.378-3.82,0.726
		c-1.244,0.359-2.47,0.788-3.659,1.289c-0.33,0.141-0.656,0.292-0.984,0.439c0.658-0.961,1.32-1.921,2.027-2.85
		c0.954-1.363,1.988-2.661,3.019-3.984c1.029-1.332,2.148-2.581,3.251-3.939c-3.191,1.412-5.964,3.647-8.398,6.124
		c-1.183,1.274-2.352,2.571-3.382,3.973c-1.048,1.404-1.988,2.825-2.878,4.406l-3.539,6.29l5.906-4.138l3.022-2.118l3.087-2.091
		L423.725,408.849z"/>
	<path style="fill:#3C3C3C;" d="M411.391,513.414c5.328,2.753,8.069-18.967,21.296-31.778
		C423.786,486.461,406.4,510.835,411.391,513.414z"/>
	<path style="fill:#3C3C3C;" d="M404.346,506.881c5.328,2.753,10.067-18.967,23.294-31.778
		C418.739,479.928,399.354,504.302,404.346,506.881z"/>
	<path style="fill:#3C3C3C;" d="M420.045,464.278c-8.849,3.899-28.121,23.596-23.159,25.681
		C402.183,492.184,406.895,474.631,420.045,464.278z"/>
	<path style="fill:#3C3C3C;" d="M396.886,453.242c5.297,2.225,10.009-15.328,23.159-25.681
		C411.195,431.46,391.924,451.158,396.886,453.242z"/>
	<path style="fill:#3C3C3C;" d="M395.357,467.059c5.297,2.225,10.009-15.328,23.159-25.681
		C409.667,445.278,390.395,464.975,395.357,467.059z"/>
	<path style="fill:#3C3C3C;" d="M418.516,453.622c-8.849,3.899-28.121,23.597-23.159,25.681
		C400.654,481.527,405.366,463.975,418.516,453.622z"/>
	<path style="fill:#3C3C3C;" d="M421.963,511.213c4.109,2.188,6.406-14.458,16.591-24.293
		C431.675,490.548,418.049,509.029,421.963,511.213z"/>
	<path style="fill:#3C3C3C;" d="M432.586,509c3.207,1.78,5.203-11.102,13.138-18.73C440.338,492.998,429.46,507.079,432.586,509z"/>
	<path style="fill:#3C3C3C;" d="M443.211,506.789c2.323,1.369,3.991-7.84,9.721-13.312
		C449.012,495.341,440.868,505.16,443.211,506.789z"/>
	<path style="fill:#3C3C3C;" d="M453.889,504.561c1.753,1.134,3.296-5.655,7.597-9.715
		C458.505,496.108,452.021,503.029,453.889,504.561z"/>
	<path style="fill:#3C3C3C;" d="M464.547,502.306c1.206,0.924,2.672-3.519,5.599-6.213
		C468.062,496.754,463.119,500.819,464.547,502.306z"/>
	<path style="fill:#3C3C3C;" d="M567.279,481.636c13.227,12.811,15.968,34.53,21.296,31.778
		C593.566,510.835,576.18,486.461,567.279,481.636z"/>
	<path style="fill:#3C3C3C;" d="M572.326,475.104c13.227,12.811,17.967,34.53,23.294,31.778
		C600.611,504.302,581.227,479.928,572.326,475.104z"/>
	<path style="fill:#3C3C3C;" d="M579.921,464.278c13.15,10.353,17.862,27.905,23.159,25.681
		C608.042,487.875,588.77,468.177,579.921,464.278z"/>
	<path style="fill:#3C3C3C;" d="M603.08,453.242c4.962-2.084-14.31-21.781-23.159-25.681
		C593.071,437.914,597.783,455.466,603.08,453.242z"/>
	<path style="fill:#3C3C3C;" d="M581.45,441.378c13.15,10.353,17.862,27.905,23.159,25.681
		C609.571,464.975,590.299,445.278,581.45,441.378z"/>
	<path style="fill:#3C3C3C;" d="M581.45,453.622c13.15,10.353,17.862,27.905,23.159,25.681
		C609.571,477.219,590.299,457.521,581.45,453.622z"/>
	<path style="fill:#3C3C3C;" d="M561.411,486.92c10.185,9.835,12.483,26.481,16.591,24.293
		C581.916,509.029,568.291,490.548,561.411,486.92z"/>
	<path style="fill:#3C3C3C;" d="M554.242,490.27c7.935,7.628,9.93,20.51,13.138,18.73
		C570.505,507.079,559.628,492.998,554.242,490.27z"/>
	<path style="fill:#3C3C3C;" d="M547.034,493.477c5.731,5.472,7.398,14.68,9.722,13.312
		C559.098,505.16,550.954,495.341,547.034,493.477z"/>
	<path style="fill:#3C3C3C;" d="M538.479,494.846c4.302,4.059,5.844,10.848,7.597,9.715
		C547.944,503.029,541.461,496.108,538.479,494.846z"/>
	<path style="fill:#3C3C3C;" d="M529.82,496.093c2.927,2.693,4.393,7.137,5.599,6.213
		C536.846,500.819,531.904,496.754,529.82,496.093z"/>
	<path style="fill:#3C3C3C;" d="M491.535,112.44c5.103,1.669,10.318,3.085,15.635,4.153c0.542,0.109,1.09,0.199,1.634,0.302
		c2.274,0.505,4.552,0.996,6.835,1.459c7.397,1.55,14.847,2.846,22.263,4.232c7.422,1.354,14.85,2.656,22.191,4.202
		c7.35,1.489,14.663,3.139,21.671,5.406c3.527,1.104,6.855,2.456,10.219,4.025c3.356,1.522,6.644,3.155,9.886,4.864
		c3.204,1.76,6.359,3.606,9.342,5.67c1.53,0.988,2.945,2.109,4.402,3.188c1.388,1.151,2.795,2.288,4.095,3.533
		c5.338,4.859,9.585,10.771,13.056,17.132c-2.72-6.71-6.618-13.024-11.728-18.37c-2.534-2.687-5.349-5.122-8.316-7.359
		c-2.94-2.28-6.112-4.255-9.304-6.187c-3.226-1.878-6.518-3.657-9.899-5.263c-3.325-1.648-6.872-3.187-10.467-4.398
		c-7.206-2.439-14.612-4.132-22.02-5.694c-6.136-1.235-12.294-2.319-18.455-3.359c0.455,0.026,0.909,0.049,1.364,0.075
		c12.177,0.768,24.291,2.07,36.015,4.8c2.941,0.649,5.837,1.438,8.706,2.302c2.876,0.85,5.708,1.819,8.504,2.881
		c5.599,2.112,10.987,4.709,16.211,7.635c-9.434-7.244-20.7-12.371-32.522-15.6c-5.916-1.624-11.967-2.834-18.072-3.729
		c-6.116-0.836-12.268-1.444-18.446-1.764c-6.171-0.354-12.402-0.381-18.442-0.61c-6.065-0.377-12.112-0.972-18.1-1.903
		c-11.947-1.944-23.733-4.946-34.839-9.604c3.086,2.024,6.483,3.633,9.97,5.003C485.742,110.577,488.627,111.54,491.535,112.44z"/>
	<path style="fill:#3C3C3C;" d="M483.441,138.7c4.311,3.408,9.199,6.126,14.346,8.268c5.17,2.104,10.607,3.626,16.167,4.555
		c5.566,0.917,11.258,1.142,16.907,0.861c-5.573-0.699-11.072-1.43-16.437-2.662c-5.343-1.272-10.578-2.845-15.574-4.921
		c-5.013-2.035-9.783-4.57-14.204-7.574c-4.381-3.044-8.536-6.471-11.694-10.821C475.231,131.3,479.168,135.303,483.441,138.7z"/>
	<path style="fill:#3C3C3C;" d="M483.082,128.965c2.584,3.216,5.977,5.761,9.507,7.992c3.546,2.239,7.365,4.083,11.327,5.615
		c1.99,0.75,4.028,1.387,6.08,1.982l3.129,0.746c1.044,0.244,2.115,0.397,3.174,0.579c4.253,0.661,8.614,0.868,12.925,0.409
		c-4.256-0.522-8.392-1.233-12.448-2.208c-4.052-0.977-8.014-2.214-11.863-3.702c-3.868-1.446-7.623-3.144-11.291-5.006
		C489.971,133.478,486.388,131.459,483.082,128.965z"/>
	<path style="fill:#3C3C3C;" d="M516.005,139.546c2.342,0.389,4.736,0.587,7.154,0.427c-2.221-0.81-4.418-1.501-6.6-2.21
		l-6.499-2.168l-6.48-2.234c-2.167-0.757-4.338-1.526-6.616-2.192c1.746,1.52,3.703,2.77,5.752,3.862
		c2.05,1.092,4.197,2.03,6.422,2.785C511.36,138.581,513.662,139.155,516.005,139.546z"/>
	<path style="fill:#3C3C3C;" d="M268.988,219.613l7.652-11.051c2.575-3.692,5.162-7.398,7.55-11.29
		c-3.544,2.995-6.769,6.272-9.804,9.706c-3.052,3.422-5.873,7.035-8.452,10.81c-2.568,3.779-4.895,7.73-6.758,11.88
		c-1.875,4.131-3.345,8.48-3.837,12.906c1.97-4.086,4.101-7.959,6.392-11.765C264.044,227.02,266.477,223.303,268.988,219.613z"/>
	<path style="fill:#3C3C3C;" d="M326.853,198.713c1.975-1.931,3.829-3.954,5.594-6.027c3.539-4.142,6.857-8.395,10.157-12.625
		c1.626-2.132,3.292-4.23,4.973-6.308c1.65-2.103,3.391-4.126,5.115-6.163c3.517-4.019,7.178-7.9,11.606-11.178
		c-5.187,2.034-9.685,5.596-13.67,9.374c-2.027,1.884-3.875,3.919-5.714,5.949c-1.812,2.054-3.514,4.18-5.216,6.298
		c-3.358,4.27-6.445,8.69-9.525,13.076c-1.551,2.185-3.065,4.388-4.673,6.518c-1.617,2.12-3.223,4.253-5.4,5.937
		c1.311-0.478,2.484-1.289,3.598-2.123C324.825,200.603,325.83,199.651,326.853,198.713z"/>
	<path style="fill:#3C3C3C;" d="M394.96,164.24c-1.182,1.38-2.294,2.819-3.526,4.158l-3.68,4.035l-3.796,3.937
		c-1.333,1.246-2.645,2.515-3.951,3.797c-5.387,4.949-11.141,9.536-17.55,13.415c7.063-2.574,13.546-6.712,19.412-11.406
		c5.892-4.707,11.141-10.108,15.928-15.824c4.724-5.765,8.992-11.874,12.513-18.352c3.51-6.454,6.432-13.3,7.703-20.378
		c-2.737,6.729-6.279,13.02-10.175,19.112c-0.973,1.523-1.97,3.03-3.013,4.512c-1.02,1.495-2.045,2.984-3.16,4.42
		C399.54,158.6,397.3,161.46,394.96,164.24z"/>
	<path style="fill:#3C3C3C;" d="M375.117,174.115c-3.616,3.563-7.29,7.039-11.585,10.012c4.995-1.689,9.447-4.771,13.501-8.051
		c4.059-3.324,7.759-7.009,11.197-10.883c3.409-3.899,6.624-7.945,9.477-12.222c2.83-4.263,5.529-8.724,7.108-13.555
		c-2.93,4.213-6.18,8.099-9.407,12.03c-0.828,0.966-1.656,1.931-2.45,2.917l-2.475,2.893c-1.658,1.92-3.282,3.867-5.006,5.729
		C382.096,166.761,378.705,170.53,375.117,174.115z"/>
	<path style="fill:#3C3C3C;" d="M381.568,161.519c1.779-1.974,3.419-4.059,4.896-6.251c1.458-2.204,2.801-4.486,3.771-6.984
		c-2.195,1.67-4.111,3.493-5.998,5.33c-1.868,1.849-3.659,3.741-5.402,5.67c-1.744,1.928-3.436,3.893-5.088,5.909
		c-1.639,2.031-3.267,4.074-4.756,6.344c2.499-1.198,4.71-2.78,6.798-4.473C377.864,165.354,379.789,163.494,381.568,161.519z"/>
	<path style="fill:#3C3C3C;" d="M291.471,255.686c-3.366,3.2-6.716,6.412-9.998,9.686c-3.255,3.3-6.517,6.59-9.663,9.983
		c-6.332,6.748-12.49,13.651-18.211,20.893c6.834-6.298,13.542-12.672,20.237-19.051c6.714-6.36,13.376-12.758,20.138-19.045
		c3.348-3.176,6.751-6.296,10.168-9.396c3.387-3.133,6.863-6.169,10.336-9.203c3.503-2.999,7.033-5.972,10.709-8.762
		c3.664-2.807,7.442-5.48,11.692-7.443c-4.533,1.236-8.713,3.601-12.699,6.052c-3.977,2.507-7.798,5.232-11.499,8.09
		C305.258,243.187,298.285,249.37,291.471,255.686z"/>
	<path style="fill:#3C3C3C;" d="M360.616,215.641c-3.009,1.068-5.978,2.332-8.832,3.797c-1.447,0.701-2.869,1.448-4.267,2.237
		c-1.417,0.761-2.791,1.586-4.174,2.401c-5.512,3.292-10.826,6.885-16.023,10.62c-5.189,3.749-10.244,7.663-15.195,11.696
		c-4.961,4.021-9.84,8.137-14.578,12.401c-9.59,8.419-18.475,17.561-27.261,26.635c-4.423,4.517-8.756,9.096-13.24,13.499
		c-2.238,2.202-4.506,4.378-6.914,6.38c-1.204,1.002-2.434,1.979-3.753,2.825c-1.312,0.854-2.697,1.626-4.238,2.08
		c1.595-0.126,3.173-0.663,4.66-1.322c1.488-0.673,2.912-1.477,4.278-2.351c2.75-1.735,5.288-3.728,7.779-5.754
		c4.931-4.108,9.562-8.483,14.106-12.906l13.617-13.224c4.537-4.389,9.156-8.677,13.806-12.954
		c9.32-8.523,18.896-16.798,28.818-24.662c4.958-3.934,9.996-7.775,15.18-11.425C349.575,221.98,354.879,218.479,360.616,215.641z"
		/>
	<path style="fill:#3C3C3C;" d="M330.556,241.227c-4.832,3.574-9.581,7.253-14.207,11.074c-9.275,7.611-18.203,15.658-26.479,24.391
		c-4.045,4.325-8.111,8.627-12.267,12.84c-4.084,4.281-8.33,8.403-12.58,12.51c-2.136,2.042-4.316,4.04-6.531,5.991
		c-2.206,1.963-4.464,3.867-6.809,5.655c-2.321,1.82-4.749,3.503-7.321,4.927c-1.286,0.711-2.622,1.335-4.019,1.777
		c-1.388,0.46-2.863,0.735-4.343,0.593c1.42,0.383,2.982,0.355,4.493,0.109c1.514-0.262,2.992-0.731,4.422-1.291
		c2.86-1.137,5.541-2.641,8.135-4.237c5.148-3.263,9.948-6.973,14.54-10.87c4.627-3.867,8.987-7.995,13.316-12.137
		c4.259-4.208,8.448-8.474,12.528-12.826c3.988-4.331,8.191-8.453,12.439-12.584c4.232-4.139,8.594-8.168,12.939-12.222
		c4.381-4.015,8.759-8.046,13.214-11.999c2.207-1.999,4.452-3.959,6.705-5.911c2.263-1.943,4.509-3.904,6.945-5.656
		c-2.714,1.33-5.237,3.007-7.741,4.672C335.422,237.696,332.995,239.467,330.556,241.227z"/>
	<path style="fill:#3C3C3C;" d="M430.874,192.298c3.663-0.936,7.319-1.902,10.988-2.808c3.662-0.937,7.324-1.875,10.997-2.768
		l22.015-5.507l11.021-2.749c3.677-0.929,7.346-1.854,11.069-2.638c-3.788,0.006-7.57,0.481-11.333,0.937
		c-3.763,0.498-7.514,1.08-11.25,1.761c-1.872,0.316-3.738,0.667-5.598,1.054l-5.582,1.146c-3.714,0.802-7.409,1.698-11.107,2.583
		c-7.372,1.879-14.708,3.943-21.941,6.368c-7.229,2.415-14.409,5.099-21.247,8.525C416.244,196.133,423.553,194.205,430.874,192.298
		z"/>
	<path style="fill:#3C3C3C;" d="M573.013,224.566c-15.611-3.931-31.6-6.691-47.791-8.367c-2.925-0.356-5.87-0.581-8.818-0.791
		c-1.132-0.231-5.634-1.128-9.228-1.554c14.119-2.037,46.73,0.615,55.401,3.292c-10.743-5.372-45.528-9.979-54.276-9.714
		c15.961-3.251,47.907,0.167,51.437,1.47c-8.978-4.941-44.429-8.635-59.545-6.746c11.74-4.227,46.577-4.84,52.255-2.169
		c-7.98-5.209-39.852-7.895-58.101-3.434c6.127-3.987,33.239-8.057,42.345-6.527c-7.469-3.567-25.578-4.085-47.268,0.366
		c8.083-5.77,27.829-7.68,36.218-7.879c-8.901-3.206-32.126-1.719-48.393,3.358c-16.267,5.078-47.728,12.782-58.164,15.625
		c-10.436,2.843-44.505,7.998-66.451,26.436c20.871-12.58,37.855-14.948,66.911-20.825c29.056-5.876,38.06-10.367,50.337-9.623
		c-11.816,8.632-41.736,20.489-62.703,28.058c-9.332,2.586-18.542,5.614-27.568,9.117c4.03-0.89,8.014-1.918,12.013-2.871
		c4.009-0.911,8.013-1.816,12.001-2.773l12.02-2.553c4.022-0.741,8.027-1.57,12.047-2.288c4.03-0.643,8.047-1.388,12.082-1.959
		l6.058-0.801c2.019-0.264,4.035-0.559,6.062-0.726c8.088-0.884,16.189-1.552,24.292-1.862c4.051-0.157,8.105-0.395,12.154-0.363
		c4.051-0.037,8.101-0.082,12.145,0.042c4.046,0.075,8.096,0.128,12.129,0.39c4.039,0.202,8.079,0.396,12.102,0.751
		C540.844,220.821,556.884,222.728,573.013,224.566z"/>
	<path style="fill:#3C3C3C;" d="M582.989,181.286c-3.683,1.496-4.988,4.717-1.036,10.336c-3.261-8.003,4.949-7.729,4.949-7.729
		s-8.441-29.142-9.899-29.074C574.088,155.545,580.38,178.028,582.989,181.286z"/>
	<path style="fill:#3C3C3C;" d="M592.734,185.235c0,0,11.126,8.147,10.973,13.371c1.228-4.32-4.527-12.867-8.441-14.96
		c0.23-10.886-4.681-25.425-7.136-25.309C586.059,158.435,592.734,185.235,592.734,185.235z"/>
	<path style="fill:#3C3C3C;" d="M604.177,208.446c0.716-0.867-0.9-1.907-0.302-3.013c0.599-1.106,2.594-5.903-9.99-13.344
		c-5.412-3.2-8.748-1.596-10.078-0.309c-1.33,1.287-0.767,4.69,1.023,6.81c1.79,2.12,0.819,2.676,1.382,3.483
		c0.563,0.806,3.376,1.437,4.706,2.697c1.33,1.26,0.665,2.565,1.228,3.273s7.111,3.878,8.594,3.073
		c1.484-0.805-1.33-1.75-0.563-2.57C600.945,207.726,603.461,209.312,604.177,208.446z M599.871,201.212
		c1.176,0.091,1.944,1.623,1.202,2.172c-0.742,0.549-3.2,0.751-3.555-0.633C597.364,202.154,598.694,201.12,599.871,201.212z
		 M586.672,196.47c1.049-0.662,5.883,3.813,4.655,4.679C590.1,202.015,585.685,197.093,586.672,196.47z M597.21,206.481
		c-0.256,0.306-0.716,0.475-2.353-0.232c-1.637-0.707-1.338-3.796-0.128-3.301C595.804,203.388,597.466,206.175,597.21,206.481z"/>
	<path style="fill:#3C3C3C;" d="M603.707,213.744c0.48-1.664,1.243-3.612-0.484-3.862c-1.726-0.249-0.667,1.907-2.317,2.671
		c-0.746,0.346-8.904-1.94-9.783-4.095c-0.882-2.163-1.813-4.506-3.118-4.114c-1.165,0.349,1.583,4.921,1.928,5.787
		c0.345,0.866,3.619,3.246,9.502,4.512C602.217,215.242,603.23,215.4,603.707,213.744z"/>
	<path style="fill:#3C3C3C;" d="M579.153,178.894c0.844-0.738-8.671-23.767-8.671-23.767c-1.228,0.058-0.578,4.383,0.844,9.219
		C573.388,171.359,577.844,180.038,579.153,178.894z"/>
	<path style="fill:#3C3C3C;" d="M577.461,182.056c0.714-0.854-12.678-21.897-12.678-21.897c-1.211,0.249,0.173,4.38,2.412,8.889
		C570.442,175.586,576.355,183.381,577.461,182.056z"/>
	<path style="fill:#3C3C3C;" d="M576.868,185.182c0.418-0.786-14.059-15.068-14.059-15.068c-0.925,0.394,0.921,3.402,3.519,6.566
		C570.095,181.268,576.22,186.401,576.868,185.182z"/>
	<path style="fill:#3C3C3C;" d="M568.126,184.218c3.946,3.38,10.03,6.84,10.424,5.665c0.254-0.758-14.433-10.816-14.433-10.816
		C563.364,179.567,565.405,181.888,568.126,184.218z"/>
	<path style="fill:#3C3C3C;" d="M571.482,190.296c3.354,2.184,8.6,4.242,8.999,3.329c0.258-0.589-12.334-6.831-12.334-6.831
		C567.459,187.233,569.169,188.79,571.482,190.296z"/>
	<path style="fill:#3C3C3C;" d="M580.687,196.923c0.972-1.025-7.827-4.677-8.338-3.82
		C572.001,193.686,579.715,197.949,580.687,196.923z"/>
	<path style="fill:#3C3C3C;" d="M600.101,185.288c2.584-0.065-0.81-20.857-3.53-20.882
		C596.571,164.406,597.516,185.352,600.101,185.288z"/>
	<path style="fill:#3C3C3C;" d="M603.451,190.364c2.389,0.832,3.484-16.2,0.997-17.144
		C604.448,173.22,601.063,189.531,603.451,190.364z"/>
	<path style="fill:#3C3C3C;" d="M605.22,193.542c1.534,1.913,6.919-6.898,5.343-8.934
		C610.564,184.609,603.687,191.629,605.22,193.542z"/>
	<path style="fill:#3C3C3C;" d="M606.299,196.437c0.145,2.092,7.703-1.99,7.585-4.19
		C613.884,192.247,606.154,194.346,606.299,196.437z"/>
	<path style="fill:#3C3C3C;" d="M614,197.901c0,0-7.754-0.128-7.666,1.245C606.422,200.52,614.058,199.339,614,197.901z"/>
	<path style="fill:#3C3C3C;" d="M607.017,202.435c0.084,1.367,9.041,2.424,8.993,1.003
		C616.01,203.438,606.933,201.068,607.017,202.435z"/>
	<path style="fill:#3C3C3C;" d="M615.882,207.307c0,0-8.491-3.252-8.405-1.887C607.563,206.784,615.935,208.722,615.882,207.307z"/>
	<path style="fill:#3C3C3C;" d="M639.618,211.237c7.98,4.915,25.578,15.167,29.466,21.636c-9.31-7.497-32.126-18.763-40.208-19.07
		c5.525,2.775,32.944,16.767,38.469,24.737c-9.924-6.685-32.535-17.964-46.245-21.139c11.664,5.819,38.315,19.553,42.919,24.725
		c-18.228-9.651-40.475-18.109-48.212-19.959c4.438-5.019,7.456-11.544,8.1-18.362c1.041-11.027-6.685-38.049-7.015-39.194
		c-0.137-0.474-0.478-0.862-0.942-1.065c-1.861-0.817-45.81-20.037-67.9-21.943c-0.169-0.014-0.337-0.001-0.501,0.028
		c-0.044,0.008-0.086,0.024-0.13,0.035c-0.157,0.039-0.307,0.096-0.449,0.172c-0.027,0.014-0.057,0.016-0.083,0.032l-3.403,2.01
		c-0.019,0.011-0.032,0.029-0.05,0.041c-0.131,0.083-0.252,0.18-0.361,0.294c-0.015,0.016-0.034,0.027-0.049,0.043
		c-0.003,0.004-0.008,0.006-0.012,0.01c-0.114,0.129-0.203,0.272-0.275,0.42c-0.02,0.042-0.031,0.085-0.048,0.128
		c-0.046,0.116-0.082,0.234-0.103,0.355c-0.01,0.056-0.015,0.11-0.019,0.167c-0.009,0.121-0.002,0.24,0.015,0.36
		c0.005,0.036-0.003,0.071,0.005,0.107c0.271,1.277,6.409,29.912,14.076,48.007c0.307,0.861,0.73,1.806,1.241,2.809
		c0.023,0.049,0.045,0.102,0.068,0.15c2.173,4.661,5.828,9.248,10.068,13.505c7.195,7.629,17.402,15.835,30.173,22.229
		c0.002,0.001,0.006,0.003,0.008,0.004c0,0,0.001,0,0.001,0.001c0.021,0.01,0.04,0.022,0.061,0.032
		c0.09,0.045,0.187,0.068,0.283,0.097c0.049,0.015,0.094,0.039,0.143,0.049c0.159,0.034,0.323,0.05,0.488,0.042
		c0.149-0.007,0.297-0.035,0.443-0.077c0.013-0.003,0.025-0.003,0.038-0.007c2.243-0.686,4.387-1.723,6.401-3.019
		c12.994,4.27,50.736,19.936,54.63,21.342c4.035,1.457,7.44,2.07,8.478,0.415c6.957-8.661,11.254-37.96-2.251-47.021
		c1.739,2.664,3.407,9.877,3.407,9.877c-4.43-5.42-12.922-8.057-12.922-8.057c7.878,5.605,13.505,14.746,13.505,14.746
		c-8.287-7.252-21.281-12.019-21.281-12.019c11.663,7.475,20.667,18.122,20.667,18.122
		C659.671,219.306,643.71,212.122,639.618,211.237z M620.238,203.658c-0.976,10.339-8.394,20.243-17.402,23.385
		c-22.196-11.293-36.599-28.551-39.372-36.759c-2.388-7.069-10.622-35.952-13.148-44.846c20.687,2.89,57.576,18.571,63.232,21.013
		C614.797,170.926,621.127,194.235,620.238,203.658z M606.845,229.126c0.369-0.183,0.73-0.387,1.092-0.588l0.33-0.165
		c0.072-0.036,0.135-0.087,0.202-0.132c2.591-1.515,4.977-3.473,7.06-5.769c10.567,5.433,45.114,22.384,45.114,22.384
		C643.595,237.988,620.236,230.889,606.845,229.126z"/>
	<g>
		<path style="fill:#3C3C3C;" d="M546.361,538.484c-12.06-6.464-21.492-8.138-21.492-8.138l11.317,6.255l0.339,0.187l5.559,3.072
			l19.534,10.797c-0.795-1.302-1.586-2.59-2.363-3.832C554.829,543.414,550.445,540.673,546.361,538.484z"/>
		<path style="fill:#3C3C3C;" d="M546.361,538.484c-1.707-0.882-3.425-1.742-5.18-2.524c-1.745-0.803-3.529-1.517-5.32-2.207
			c-1.804-0.656-3.628-1.255-5.469-1.789c-1.84-0.527-3.706-1.008-5.573-1.342l0.185-0.522c3.086,1.649,6.196,3.256,9.263,4.94
			c3.07,1.68,6.157,3.326,9.212,5.033l9.149,5.146l9.098,5.239l-0.304,0.317l-2.294-3.871l0.035,0.039
			C555.18,543.727,550.849,540.951,546.361,538.484z M546.361,538.484c4.543,2.378,8.848,5.186,12.984,8.225l0.02,0.014l0.016,0.025
			l2.431,3.792l0.465,0.725l-0.769-0.408l-9.276-4.917l-9.225-5.01c-3.07-1.679-6.107-3.417-9.162-5.123
			c-3.058-1.701-6.072-3.48-9.111-5.216l-1.577-0.901l1.762,0.379c1.904,0.41,3.746,0.955,5.581,1.55
			c1.83,0.6,3.637,1.264,5.421,1.985c1.783,0.719,3.56,1.455,5.295,2.284C542.959,536.695,544.666,537.579,546.361,538.484z"/>
	</g>
	<path style="fill:#3C3C3C;" d="M612.487,612.388c0.693,0.697,1.385,1.39,2.077,2.062l1.81,0.796
		c0.993-3.49,1.878-6.939,3.153-10.317c-1.814,2.453-3.412,5.094-4.999,7.695c1.414-4.138,2.799-8.232,5.044-12.003
		C616.669,604.172,614.581,608.339,612.487,612.388z"/>
	<path style="fill:#3C3C3C;" d="M614.341,603.156c-1.386,2.372-2.587,4.837-3.784,7.273c0.55,0.572,1.1,1.118,1.649,1.674
		c1.02-2.847,1.992-5.675,3.193-8.405c1.373-3.13,3.075-6.151,5.428-8.706C618.196,597.258,616.099,600.136,614.341,603.156z"/>
	<path style="fill:#3C3C3C;" d="M613.549,601.772c1.379-3.147,3.071-6.197,5.442-8.761c-2.649,2.276-4.738,5.186-6.502,8.222
		c-1.376,2.365-2.574,4.82-3.769,7.244c0.539,0.577,1.079,1.168,1.618,1.729C611.368,607.351,612.347,604.514,613.549,601.772z"/>
	<path style="fill:#3C3C3C;" d="M611.708,599.832c1.377-3.162,3.065-6.228,5.446-8.801c-2.659,2.285-4.745,5.214-6.507,8.265
		c-1.365,2.36-2.555,4.807-3.751,7.218c0.536,0.59,1.071,1.156,1.606,1.73C609.541,605.397,610.516,602.568,611.708,599.832z"/>
	<path style="fill:#3C3C3C;" d="M609.993,597.651c1.35-3.089,3.001-6.083,5.324-8.602c-2.601,2.231-4.651,5.086-6.384,8.063
		c-1.404,2.407-2.623,4.905-3.855,7.361c0.539,0.609,1.078,1.229,1.616,1.822C607.771,603.371,608.765,600.461,609.993,597.651z"/>
	<path style="fill:#3C3C3C;" d="M608.152,595.714c1.348-3.104,2.996-6.116,5.328-8.645c-2.61,2.24-4.657,5.117-6.389,8.108
		c-1.379,2.378-2.581,4.841-3.802,7.259c0.532,0.617,1.064,1.214,1.595,1.816C605.961,601.366,606.945,598.492,608.152,595.714z"/>
	<path style="fill:#3C3C3C;" d="M605.38,592.998c-1.406,2.402-2.629,4.894-3.877,7.334c0.534,0.634,1.068,1.274,1.601,1.893
		c1.107-2.937,2.104-5.863,3.336-8.687c1.321-3.031,2.932-5.971,5.203-8.449C609.093,587.278,607.084,590.081,605.38,592.998z"/>
	<path style="fill:#3C3C3C;" d="M601.319,600.11c1.102-2.866,2.108-5.717,3.317-8.485c1.338-3.04,2.893-6.029,5.17-8.518
		c-2.559,2.204-4.514,5.063-6.229,7.979c-1.372,2.343-2.59,4.767-3.825,7.144C600.275,598.867,600.797,599.489,601.319,600.11z"/>
	<path style="fill:#3C3C3C;" d="M607.969,581.127c-2.497,2.131-4.469,4.863-6.144,7.707c-1.394,2.364-2.607,4.817-3.846,7.216
		c0.529,0.658,1.058,1.314,1.585,1.956c1.107-2.918,2.094-5.825,3.319-8.63C604.175,586.417,605.75,583.546,607.969,581.127z"/>
	<path style="fill:#3C3C3C;" d="M600.119,586.602c-1.418,2.367-2.645,4.83-3.893,7.241c0.535,0.68,1.07,1.353,1.604,2.019
		c1.109-2.949,2.099-5.885,3.345-8.712c1.264-2.869,2.805-5.65,4.957-8.003C603.701,581.211,601.766,583.849,600.119,586.602z"/>
	<path style="fill:#3C3C3C;" d="M604.062,577.451c0.082-0.093,0.15-0.194,0.233-0.286c-0.111,0.095-0.208,0.206-0.317,0.303
		C604.006,577.462,604.034,577.457,604.062,577.451z"/>
	<path style="fill:#3C3C3C;" d="M599.986,578.493c0.729-1.163,1.534-2.281,2.472-3.308c-1.252,1.059-2.365,2.279-3.381,3.583
		C599.379,578.674,599.682,578.582,599.986,578.493z"/>
	<path style="fill:#3C3C3C;" d="M596.387,579.699c1.126-2.327,2.465-4.558,4.234-6.495c-2.329,1.986-4.19,4.505-5.788,7.14
		C595.347,580.12,595.863,579.9,596.387,579.699z"/>
	<path style="fill:#3C3C3C;" d="M593.935,579.084c1.236-2.818,2.738-5.551,4.849-7.861c-2.389,2.021-4.287,4.613-5.905,7.314
		c-1.242,2.071-2.338,4.217-3.441,6.326c0.492,0.675,0.986,1.364,1.476,2.026C591.909,584.249,592.821,581.622,593.935,579.084z"/>
	<path style="fill:#3C3C3C;" d="M589.237,584.587c0.976-2.616,1.879-5.216,2.99-7.724c1.208-2.73,2.676-5.374,4.72-7.62
		c-2.322,1.957-4.183,4.457-5.773,7.068c-1.241,2.035-2.335,4.148-3.427,6.231C588.245,583.238,588.74,583.904,589.237,584.587z"/>
	<path style="fill:#3C3C3C;" d="M581.242,573.151c0.437,0.648,0.874,1.298,1.309,1.937c0.831-2.114,1.691-4.202,2.689-6.227
		c1.305-2.644,2.851-5.194,4.863-7.41c-2.289,1.93-4.21,4.307-5.891,6.814C583.147,569.851,582.177,571.496,581.242,573.151z"/>
	<path style="fill:#3C3C3C;" d="M581.221,573.121c1.711-4.705,3.667-9.354,7.068-13.159c-1.968,1.612-3.692,3.554-5.197,5.649
		c-1.228,1.705-2.317,3.506-3.349,5.323C580.238,571.679,580.728,572.388,581.221,573.121z"/>
	<path style="fill:#3C3C3C;" d="M567.015,550.82c0.444,0.733,0.886,1.454,1.328,2.178c1.254-3.33,2.788-6.591,5.111-9.402
		C570.926,545.571,568.848,548.126,567.015,550.82z"/>
	<path style="fill:#3C3C3C;" d="M568.494,546.1c0.749-1.61,1.591-3.186,2.735-4.586c-1.425,1.117-2.639,2.52-3.753,3.971
		c-0.696,0.912-1.346,1.854-1.982,2.801c0.418,0.696,0.838,1.402,1.253,2.089C567.297,548.926,567.852,547.493,568.494,546.1z"/>
	<path style="fill:#3C3C3C;" d="M563.981,545.763c0.43,0.724,0.856,1.426,1.284,2.141c1.152-2.874,2.279-5.693,4.25-8.123
		C567.339,541.388,565.594,543.579,563.981,545.763z"/>
	<path style="fill:#3C3C3C;" d="M562.579,543.395c0.409,0.694,0.82,1.391,1.227,2.077c0.473-1.281,0.942-2.547,1.474-3.787
		c0.368-0.844,0.76-1.679,1.211-2.484c0.566-0.178,1.143-0.318,1.722-0.443c1.233-0.246,2.485-0.407,3.743-0.509
		c2.52-0.216,5.051-0.242,7.616-0.139c-2.488-0.683-5.106-0.798-7.679-0.6c-1.287,0.117-2.574,0.315-3.822,0.687
		c-0.427,0.126-0.85,0.283-1.266,0.458c0.216-0.352,0.447-0.695,0.698-1.027c0.921-0.242,1.85-0.452,2.791-0.607
		c2.38-0.402,4.787-0.599,7.243-0.515c-2.386-0.666-4.929-0.608-7.367-0.217c-1.221,0.214-2.431,0.519-3.588,0.979
		c-1.015,0.398-1.997,0.934-2.822,1.645c0.548-1.16,1.165-2.3,1.958-3.34c-1.165,0.879-2.19,1.96-3.147,3.092
		c-0.546,0.659-1.066,1.34-1.554,2.063c0.43,0.734,0.86,1.474,1.288,2.199c0.28-1.196,0.739-2.436,1.272-3.627
		c0.037-0.081,0.077-0.161,0.115-0.241c0.982-0.547,2.026-0.919,3.081-1.242c0.226-0.065,0.456-0.116,0.683-0.176
		c-0.547,0.439-1.055,0.93-1.535,1.45c-0.456,0.257-0.891,0.547-1.269,0.907c0.275-0.163,0.558-0.304,0.845-0.429
		c-0.429,0.494-0.843,1.002-1.241,1.516C563.674,541.839,563.122,542.616,562.579,543.395z"/>
	<path style="fill:#3C3C3C;" d="M629.321,575.559c-1.752-0.053-3.507-0.074-5.248,0.099c-1.741,0.173-3.464,0.471-5.194,0.673
		c-1.728,0.219-3.464,0.356-5.201,0.51c-3.478,0.278-6.937,0.762-10.366,1.411c-3.413,0.715-6.818,1.57-10.068,2.872l0.029,0.095
		c0.39-0.079,0.779-0.15,1.169-0.227c-1.192,2.028-2.258,4.119-3.325,6.179c0.499,0.672,0.993,1.314,1.49,1.973
		c1-2.665,1.923-5.316,3.046-7.879c0.083-0.188,0.177-0.372,0.262-0.559c0.677-0.131,1.354-0.267,2.03-0.394
		c-0.484,0.701-0.947,1.416-1.386,2.143c-1.369,2.267-2.559,4.625-3.765,6.936c0.523,0.691,1.046,1.386,1.567,2.063
		c1.076-2.86,2.042-5.707,3.253-8.449c0.435-0.985,0.92-1.95,1.436-2.9c0.953-0.177,1.907-0.35,2.861-0.522
		c-1.367,1.575-2.574,3.305-3.641,5.1c-1.359,2.284-2.546,4.654-3.754,6.975c0.521,0.676,1.04,1.337,1.559,1.998
		c1.083-2.85,2.052-5.689,3.252-8.428c0.876-2,1.9-3.947,3.154-5.749c0.344-0.062,0.686-0.126,1.03-0.188l10.239-1.911
		c1.71-0.321,3.432-0.566,5.162-0.727c1.734-0.13,3.476-0.14,5.209-0.17c1.725-0.03,3.442-0.152,5.162-0.161
		c-0.452,0.23-0.887,0.49-1.295,0.789c0.756-0.375,1.549-0.616,2.355-0.786c0.516-0.002,1.031,0,1.542,0.037
		c0.425,0.042,0.856,0.062,1.289,0.087l1.268,0.241l0.038-0.091C632.869,575.797,631.059,575.718,629.321,575.559z"/>
</g>
</svg>
